<svg width="42" height="52" viewBox="0 0 42 52" fill="none" xmlns="http://www.w3.org/2000/svg">
<path d="M31.1722 0.900522C31.0638 0.779397 27.1591 0.948335 23.7612 4.63627C20.3634 8.32102 20.8861 12.5476 20.9626 12.656C21.0391 12.7644 25.8076 12.9333 28.8517 8.64615C31.8957 4.35896 31.2806 1.02483 31.1722 0.900522ZM41.7356 38.2994C41.5826 37.9935 34.3246 34.3661 35.0004 27.3918C35.6761 20.4144 40.3394 18.5019 40.4127 18.2947C40.4861 18.0875 38.5098 15.7766 36.4156 14.6068C34.878 13.782 33.1763 13.3095 31.4336 13.2234C31.0893 13.2138 29.894 12.9206 27.4364 13.5931C25.8172 14.0362 22.1675 15.4706 21.1634 15.528C20.1562 15.5853 17.1599 13.8641 13.9374 13.4083C11.8751 13.0098 9.68843 13.8258 8.12336 14.4538C6.56149 15.0785 3.59074 16.8571 1.51249 21.5842C-0.565764 26.3081 0.521174 33.7923 1.29892 36.1192C2.07667 38.4429 3.29111 42.2519 5.35661 45.0314C7.19261 48.1679 9.62786 50.345 10.6447 51.0845C11.6615 51.824 14.5302 52.3149 16.5192 51.2981C18.1194 50.3163 21.0072 49.7521 22.1484 49.7936C23.2863 49.835 25.5303 50.2844 27.8285 51.5116C29.6486 52.1396 31.3698 51.8782 33.0942 51.1769C34.8187 50.4725 37.3145 47.8014 40.2279 42.3858C41.3339 39.8677 41.8376 38.5066 41.7356 38.2994Z" fill="black"/>
</svg>
