<svg width="28" height="24" viewBox="0 0 28 24" fill="none" xmlns="http://www.w3.org/2000/svg">
<path d="M3.4398 2.66667H7.39981L10.0398 0H17.9598L20.5998 2.66667H24.5598C25.26 2.66667 25.9315 2.94762 26.4266 3.44772C26.9217 3.94781 27.1998 4.62609 27.1998 5.33333V21.3333C27.1998 22.0406 26.9217 22.7189 26.4266 23.219C25.9315 23.719 25.26 24 24.5598 24H3.4398C2.73963 24 2.06814 23.719 1.57304 23.219C1.07795 22.7189 0.799805 22.0406 0.799805 21.3333V5.33333C0.799805 4.62609 1.07795 3.94781 1.57304 3.44772C2.06814 2.94762 2.73963 2.66667 3.4398 2.66667ZM13.9998 6.66667C12.2494 6.66667 10.5706 7.36905 9.3329 8.61929C8.09516 9.86953 7.39981 11.5652 7.39981 13.3333C7.39981 15.1014 8.09516 16.7971 9.3329 18.0474C10.5706 19.2976 12.2494 20 13.9998 20C15.7502 20 17.429 19.2976 18.6667 18.0474C19.9045 16.7971 20.5998 15.1014 20.5998 13.3333C20.5998 11.5652 19.9045 9.86953 18.6667 8.61929C17.429 7.36905 15.7502 6.66667 13.9998 6.66667ZM13.9998 9.33333C15.0501 9.33333 16.0573 9.75476 16.7999 10.5049C17.5426 11.2551 17.9598 12.2725 17.9598 13.3333C17.9598 14.3942 17.5426 15.4116 16.7999 16.1618C16.0573 16.9119 15.0501 17.3333 13.9998 17.3333C12.9495 17.3333 11.9423 16.9119 11.1997 16.1618C10.457 15.4116 10.0398 14.3942 10.0398 13.3333C10.0398 12.2725 10.457 11.2551 11.1997 10.5049C11.9423 9.75476 12.9495 9.33333 13.9998 9.33333Z" fill="#566246"/>
</svg>
