<svg width="43" height="43" viewBox="0 0 43 43" fill="none" xmlns="http://www.w3.org/2000/svg">
<path d="M42.3372 17.327H40.6255V17.2388H21.5005V25.7388H33.5099C31.7579 30.6868 27.0499 34.2388 21.5005 34.2388C14.4593 34.2388 8.75049 28.53 8.75049 21.4888C8.75049 14.4476 14.4593 8.73877 21.5005 8.73877C24.7507 8.73877 27.7076 9.96489 29.959 11.9677L35.9696 5.95714C32.1744 2.42008 27.0977 0.23877 21.5005 0.23877C9.76517 0.23877 0.250488 9.75346 0.250488 21.4888C0.250488 33.2241 9.76517 42.7388 21.5005 42.7388C33.2358 42.7388 42.7505 33.2241 42.7505 21.4888C42.7505 20.064 42.6039 18.6731 42.3372 17.327Z" fill="#FFC107"/>
<path d="M2.7002 11.598L9.68188 16.7181C11.571 12.041 16.1461 8.73877 21.5001 8.73877C24.7503 8.73877 27.7072 9.96489 29.9586 11.9677L35.9692 5.95714C32.1739 2.42008 27.0973 0.23877 21.5001 0.23877C13.3379 0.23877 6.25957 4.84683 2.7002 11.598Z" fill="#FF3D00"/>
<path d="M21.5008 42.7429C26.9897 42.7429 31.9771 40.6423 35.7479 37.2264L29.171 31.661C26.9658 33.3381 24.2712 34.2451 21.5008 34.2429C15.9737 34.2429 11.2806 30.7186 9.51263 25.8003L2.58301 31.1394C6.09988 38.0212 13.242 42.7429 21.5008 42.7429Z" fill="#4CAF50"/>
<path d="M42.3372 17.327H40.6255V17.2388H21.5005V25.7388H33.5099C32.6718 28.0937 31.1622 30.1515 29.1675 31.658L29.1707 31.6558L35.7475 37.2212C35.2822 37.6441 42.7505 32.1138 42.7505 21.4888C42.7505 20.064 42.6039 18.6731 42.3372 17.327Z" fill="#1976D2"/>
</svg>
