<svg width="15" height="14" viewBox="0 0 15 14" fill="none" xmlns="http://www.w3.org/2000/svg">
<path d="M13.9277 1.70711C14.302 1.31658 14.302 0.683417 13.9277 0.292893C13.5535 -0.0976311 12.9467 -0.0976311 12.5724 0.292893L7.50008 5.58579L2.42773 0.292893C2.05347 -0.0976311 1.44669 -0.0976311 1.07244 0.292893C0.698185 0.683417 0.698185 1.31658 1.07244 1.70711L6.14479 7L1.07244 12.2929C0.698185 12.6834 0.698185 13.3166 1.07244 13.7071C1.44669 14.0976 2.05347 14.0976 2.42773 13.7071L7.50008 8.41421L12.5724 13.7071C12.9467 14.0976 13.5535 14.0976 13.9277 13.7071C14.302 13.3166 14.302 12.6834 13.9277 12.2929L8.85537 7L13.9277 1.70711Z" fill="#242424"/>
</svg>
