<svg width="370" height="285" viewBox="0 0 370 285" fill="none" xmlns="http://www.w3.org/2000/svg">
<path fill-rule="evenodd" clip-rule="evenodd" d="M176.068 5.40859C219.5 20.3245 304.855 15.3672 328.412 83.7088C351.5 150.689 400.959 213.598 340.58 256.199C276.639 301.313 151.692 287.836 87.1113 243.511C24.4177 200.482 25.5682 120.468 53.2672 62.937C80.9662 5.40561 132.636 -9.50737 176.068 5.40859Z" fill="#E1E3DE"/>
<g clip-path="url(#clip0_3_7985)">
<path d="M337.115 266.658H130.016C127.88 266.656 125.832 265.806 124.322 264.296C122.811 262.786 121.962 260.738 121.959 258.602V26.8592C121.962 24.7232 122.811 22.6754 124.322 21.1651C125.832 19.6547 127.88 18.8051 130.016 18.8027H337.115C339.251 18.8051 341.299 19.6547 342.809 21.1651C344.319 22.6754 345.169 24.7232 345.171 26.8592V258.602C345.169 260.738 344.319 262.786 342.809 264.296C341.299 265.806 339.251 266.656 337.115 266.658ZM130.016 19.7506C128.131 19.7527 126.324 20.5023 124.991 21.835C123.659 23.1677 122.909 24.9745 122.907 26.8592V258.602C122.909 260.486 123.659 262.293 124.991 263.626C126.324 264.959 128.131 265.708 130.016 265.71H337.115C339 265.708 340.806 264.959 342.139 263.626C343.472 262.293 344.221 260.486 344.224 258.602V26.8592C344.221 24.9745 343.472 23.1677 342.139 21.835C340.806 20.5023 339 19.7527 337.115 19.7506H130.016Z" fill="#3F3D56"/>
<path d="M344.697 38.5156H122.433V39.4634H344.697V38.5156Z" fill="#3F3D56"/>
<path d="M133.333 33.023C135.427 33.023 137.124 31.3256 137.124 29.2317C137.124 27.1378 135.427 25.4404 133.333 25.4404C131.239 25.4404 129.542 27.1378 129.542 29.2317C129.542 31.3256 131.239 33.023 133.333 33.023Z" fill="#566246"/>
<path d="M145.18 33.023C147.274 33.023 148.972 31.3256 148.972 29.2317C148.972 27.1378 147.274 25.4404 145.18 25.4404C143.087 25.4404 141.389 27.1378 141.389 29.2317C141.389 31.3256 143.087 33.023 145.18 33.023Z" fill="#566246"/>
<path d="M157.029 33.023C159.123 33.023 160.82 31.3256 160.82 29.2317C160.82 27.1378 159.123 25.4404 157.029 25.4404C154.935 25.4404 153.238 27.1378 153.238 29.2317C153.238 31.3256 154.935 33.023 157.029 33.023Z" fill="#566246"/>
<path d="M307.495 73.3012H159.635C158.001 73.3012 156.434 72.6521 155.279 71.4967C154.123 70.3413 153.474 68.7743 153.474 67.1403C153.474 65.5064 154.123 63.9393 155.279 62.784C156.434 61.6286 158.001 60.9795 159.635 60.9795H307.495C309.129 60.9795 310.696 61.6286 311.852 62.784C313.007 63.9393 313.656 65.5064 313.656 67.1403C313.656 68.7743 313.007 70.3413 311.852 71.4967C310.696 72.6521 309.129 73.3012 307.495 73.3012ZM159.635 61.9273C158.252 61.9273 156.926 62.4765 155.949 63.4542C154.971 64.4318 154.422 65.7578 154.422 67.1403C154.422 68.5229 154.971 69.8489 155.949 70.8265C156.926 71.8041 158.252 72.3534 159.635 72.3534H307.495C308.878 72.3534 310.204 71.8041 311.181 70.8265C312.159 69.8489 312.708 68.5229 312.708 67.1403C312.708 65.7578 312.159 64.4318 311.181 63.4542C310.204 62.4765 308.878 61.9273 307.495 61.9273H159.635Z" fill="#3F3D56"/>
<path d="M270.935 121.921H203.639C202.634 121.921 201.669 121.522 200.958 120.811C200.247 120.1 199.848 119.135 199.848 118.13C199.848 117.124 200.247 116.16 200.958 115.449C201.669 114.738 202.634 114.338 203.639 114.338H270.935C271.94 114.338 272.904 114.738 273.615 115.449C274.326 116.16 274.726 117.124 274.726 118.13C274.726 119.135 274.326 120.1 273.615 120.811C272.904 121.522 271.94 121.921 270.935 121.921Z" fill="#FCFAED"/>
<path d="M309.846 134.335H203.69C202.684 134.335 201.72 133.935 201.009 133.224C200.298 132.513 199.898 131.549 199.898 130.543C199.898 129.538 200.298 128.573 201.009 127.862C201.72 127.151 202.684 126.752 203.69 126.752H309.846C310.851 126.752 311.816 127.151 312.527 127.862C313.238 128.573 313.637 129.538 313.637 130.543C313.637 131.549 313.238 132.513 312.527 133.224C311.816 133.935 310.851 134.335 309.846 134.335Z" fill="#FCFAED"/>
<path d="M178.424 135.431H158.046C156.852 135.429 155.708 134.955 154.864 134.111C154.02 133.267 153.545 132.122 153.543 130.929V118.133C153.545 116.939 154.02 115.795 154.864 114.951C155.708 114.107 156.852 113.632 158.046 113.631H178.424C179.617 113.632 180.762 114.107 181.606 114.951C182.45 115.795 182.925 116.939 182.926 118.133V130.929C182.925 132.122 182.45 133.267 181.606 134.111C180.762 134.955 179.617 135.429 178.424 135.431ZM158.046 114.579C157.103 114.58 156.2 114.955 155.533 115.621C154.867 116.287 154.492 117.191 154.491 118.133V130.929C154.492 131.871 154.867 132.774 155.533 133.441C156.2 134.107 157.103 134.482 158.046 134.483H178.424C179.366 134.482 180.27 134.107 180.936 133.441C181.602 132.774 181.977 131.871 181.978 130.929V118.133C181.977 117.191 181.602 116.287 180.936 115.621C180.27 114.955 179.366 114.58 178.424 114.579H158.046Z" fill="#CCCCCC"/>
<path d="M270.935 166.944H203.639C202.634 166.944 201.669 166.544 200.958 165.833C200.247 165.122 199.848 164.158 199.848 163.153C199.848 162.147 200.247 161.183 200.958 160.472C201.669 159.761 202.634 159.361 203.639 159.361H270.935C271.94 159.361 272.904 159.761 273.615 160.472C274.326 161.183 274.726 162.147 274.726 163.153C274.726 164.158 274.326 165.122 273.615 165.833C272.904 166.544 271.94 166.944 270.935 166.944Z" fill="#FCFAED"/>
<path d="M309.795 179.741H203.639C202.634 179.741 201.669 179.341 200.958 178.63C200.247 177.919 199.848 176.955 199.848 175.949C199.848 174.944 200.247 173.98 200.958 173.269C201.669 172.558 202.634 172.158 203.639 172.158H309.795C310.801 172.158 311.765 172.558 312.476 173.269C313.187 173.98 313.587 174.944 313.587 175.949C313.587 176.955 313.187 177.919 312.476 178.63C311.765 179.341 310.801 179.741 309.795 179.741Z" fill="#FCFAED"/>
<path d="M178.424 180.45H158.046C156.852 180.448 155.708 179.974 154.864 179.13C154.02 178.286 153.545 177.141 153.543 175.948V163.152C153.545 161.958 154.02 160.814 154.864 159.97C155.708 159.126 156.852 158.651 158.046 158.65H178.424C179.617 158.651 180.762 159.126 181.606 159.97C182.45 160.814 182.925 161.958 182.926 163.152V175.948C182.925 177.141 182.45 178.286 181.606 179.13C180.762 179.974 179.617 180.448 178.424 180.45ZM158.046 159.598C157.103 159.599 156.2 159.974 155.533 160.64C154.867 161.306 154.492 162.21 154.491 163.152V175.948C154.492 176.89 154.867 177.793 155.533 178.46C156.2 179.126 157.103 179.501 158.046 179.502H178.424C179.366 179.501 180.27 179.126 180.936 178.46C181.602 177.793 181.977 176.89 181.978 175.948V163.152C181.977 162.21 181.602 161.306 180.936 160.64C180.27 159.974 179.366 159.599 178.424 159.598H158.046Z" fill="#CCCCCC"/>
<path d="M270.935 211.963H203.639C202.634 211.963 201.669 211.564 200.958 210.853C200.247 210.142 199.848 209.178 199.848 208.172C199.848 207.167 200.247 206.202 200.958 205.491C201.669 204.78 202.634 204.381 203.639 204.381H270.935C271.94 204.381 272.904 204.78 273.615 205.491C274.326 206.202 274.726 207.167 274.726 208.172C274.726 209.178 274.326 210.142 273.615 210.853C272.904 211.564 271.94 211.963 270.935 211.963Z" fill="#F2F2F2"/>
<path d="M309.795 224.764H203.639C202.634 224.764 201.669 224.365 200.958 223.654C200.247 222.943 199.848 221.978 199.848 220.973C199.848 219.967 200.247 219.003 200.958 218.292C201.669 217.581 202.634 217.182 203.639 217.182H309.795C310.801 217.182 311.765 217.581 312.476 218.292C313.187 219.003 313.587 219.967 313.587 220.973C313.587 221.978 313.187 222.943 312.476 223.654C311.765 224.365 310.801 224.764 309.795 224.764Z" fill="#F2F2F2"/>
<path d="M178.424 225.473H158.046C156.852 225.472 155.708 224.997 154.864 224.153C154.02 223.309 153.545 222.165 153.543 220.971V208.175C153.545 206.982 154.02 205.838 154.864 204.993C155.708 204.149 156.852 203.675 158.046 203.673H178.424C179.617 203.675 180.762 204.149 181.606 204.993C182.45 205.838 182.925 206.982 182.926 208.175V220.971C182.925 222.165 182.45 223.309 181.606 224.153C180.762 224.997 179.617 225.472 178.424 225.473Z" fill="#F2F2F2"/>
<path d="M168.235 131.517L167.138 130.527C163.241 126.949 160.668 124.627 160.668 121.734C160.658 121.184 160.759 120.637 160.965 120.126C161.17 119.616 161.476 119.151 161.864 118.761C162.252 118.371 162.714 118.062 163.224 117.854C163.733 117.645 164.279 117.541 164.83 117.547C165.479 117.551 166.12 117.695 166.708 117.971C167.296 118.248 167.817 118.648 168.235 119.146C168.652 118.648 169.173 118.248 169.761 117.971C170.349 117.695 170.99 117.551 171.64 117.547C172.19 117.541 172.736 117.645 173.246 117.854C173.755 118.062 174.218 118.371 174.606 118.761C174.994 119.151 175.3 119.616 175.505 120.126C175.71 120.637 175.811 121.184 175.802 121.734C175.802 124.627 173.229 126.949 169.332 130.527L168.235 131.517Z" fill="#566246"/>
<path d="M168.235 176.531L167.138 175.541C163.241 171.964 160.668 169.641 160.668 166.749C160.658 166.198 160.759 165.652 160.965 165.141C161.17 164.63 161.476 164.166 161.864 163.776C162.252 163.385 162.714 163.077 163.224 162.868C163.733 162.66 164.279 162.555 164.83 162.562C165.479 162.565 166.12 162.71 166.708 162.986C167.296 163.262 167.817 163.663 168.235 164.161C168.652 163.663 169.173 163.262 169.761 162.986C170.349 162.71 170.99 162.565 171.64 162.562C172.19 162.555 172.736 162.66 173.246 162.868C173.755 163.077 174.218 163.385 174.606 163.776C174.994 164.166 175.3 164.63 175.505 165.141C175.71 165.652 175.811 166.198 175.802 166.749C175.802 169.641 173.229 171.964 169.332 175.541L168.235 176.531Z" fill="#566246"/>
<path d="M110.548 143.964H84.9702C83.4721 143.963 82.0357 143.367 80.9763 142.307C79.9169 141.248 79.321 139.812 79.3193 138.313V122.253C79.321 120.755 79.9169 119.318 80.9763 118.259C82.0357 117.2 83.4721 116.604 84.9702 116.602H110.548C112.046 116.604 113.483 117.2 114.542 118.259C115.601 119.318 116.197 120.755 116.199 122.253V138.313C116.197 139.812 115.601 141.248 114.542 142.307C113.483 143.367 112.046 143.963 110.548 143.964ZM84.9702 117.792C83.7875 117.793 82.6535 118.263 81.8171 119.1C80.9808 119.936 80.5103 121.07 80.509 122.253V138.313C80.5103 139.496 80.9808 140.63 81.8171 141.467C82.6535 142.303 83.7875 142.773 84.9702 142.775H110.548C111.731 142.773 112.865 142.303 113.701 141.467C114.538 140.63 115.008 139.496 115.009 138.313V122.253C115.008 121.07 114.538 119.936 113.701 119.1C112.865 118.263 111.731 117.793 110.548 117.792H84.9702Z" fill="#3F3D56"/>
<path d="M97.7602 139.055L96.3829 137.813C91.4918 133.322 88.2628 130.407 88.2628 126.777C88.2506 126.086 88.3772 125.4 88.6351 124.759C88.8929 124.118 89.2767 123.535 89.7637 123.045C90.2508 122.555 90.8312 122.168 91.4706 121.906C92.1101 121.644 92.7955 121.513 93.4863 121.521C94.3017 121.526 95.1063 121.707 95.8443 122.054C96.5823 122.4 97.2361 122.903 97.7602 123.528C98.2843 122.903 98.9381 122.4 99.6761 122.054C100.414 121.707 101.219 121.526 102.034 121.521C102.725 121.513 103.41 121.644 104.05 121.906C104.689 122.168 105.27 122.555 105.757 123.045C106.244 123.535 106.628 124.118 106.885 124.759C107.143 125.4 107.27 126.086 107.258 126.777C107.258 130.407 104.029 133.322 99.1375 137.813L97.7602 139.055Z" fill="#566246"/>
<path d="M82.9702 260.103L89.5859 258.529L86.6641 232.263L76.8999 234.586L82.9702 260.103Z" fill="#8B5E38"/>
<path d="M103.805 261.643L83.0132 266.589L81.1022 258.556L93.861 255.521C94.9159 255.27 96.01 255.229 97.0807 255.401C98.1513 255.573 99.1777 255.954 100.101 256.522C101.024 257.091 101.827 257.836 102.462 258.714C103.098 259.593 103.554 260.588 103.805 261.643Z" fill="#231F20"/>
<path d="M76.4753 243.201L62.1069 193.957L80.062 189.503L90.5953 241.656C90.6725 242.038 90.6654 242.432 90.5743 242.811C90.4833 243.19 90.3106 243.545 90.0683 243.85C89.826 244.156 89.5199 244.404 89.1715 244.579C88.8231 244.754 88.4407 244.85 88.0512 244.862L79.1244 245.127C79.0976 245.128 79.0709 245.128 79.0441 245.128C78.4651 245.128 77.9018 244.94 77.4387 244.593C76.9755 244.245 76.6375 243.757 76.4753 243.201Z" fill="#231F20"/>
<path d="M41.9999 260.27L48.8001 260.269L52.0342 234.04L41.9976 234.041L41.9999 260.27Z" fill="#8B5E38"/>
<path d="M61.9155 266.587L40.5433 266.589L40.5426 258.331L53.6574 258.33C55.8474 258.33 57.9478 259.2 59.4965 260.748C61.0452 262.297 61.9153 264.397 61.9155 266.587Z" fill="#231F20"/>
<path d="M40.806 250.088C40.5561 249.846 40.3568 249.557 40.2195 249.237C40.0822 248.918 40.0097 248.574 40.0063 248.226L33.8108 199.102C33.8083 198.393 34.0864 197.713 34.5843 197.208C35.0823 196.704 35.7596 196.418 36.4681 196.412L50.2969 196.312H50.3167C51.0189 196.313 51.6924 196.59 52.1927 197.083C52.693 197.576 52.9803 198.245 52.9928 198.947L53.728 247.34C53.739 248.046 53.4702 248.728 52.9804 249.237C52.4905 249.745 51.8193 250.04 51.1132 250.056L42.7185 250.853C42.7055 250.854 42.6926 250.854 42.6797 250.854C41.9785 250.856 41.3051 250.58 40.806 250.088Z" fill="#231F20"/>
<path d="M43.7689 87.4938C51.8376 87.4938 58.3786 80.9528 58.3786 72.8841C58.3786 64.8154 51.8376 58.2744 43.7689 58.2744C35.7002 58.2744 29.1592 64.8154 29.1592 72.8841C29.1592 80.9528 35.7002 87.4938 43.7689 87.4938Z" fill="#8B5E38"/>
<path d="M24.522 196.534C15.0163 189.107 15.1169 180.442 18.3605 168.869C19.2742 165.609 20.2604 162.304 21.3044 158.806C26.1553 142.552 31.6533 124.13 29.566 108.918L29.8607 108.878L29.566 108.918C28.9943 104.752 30.4516 100.37 33.564 96.8956C36.6766 93.4207 40.8659 91.4953 45.0773 91.604C49.2812 91.7161 53.3691 93.8651 56.2924 97.5003C59.2015 101.118 60.59 113.838 61.0015 115.661C62.891 124.028 64.0315 129.079 64.8494 137.136C65.8167 146.661 77.4019 175.141 81.0936 179.916C82.0733 181.177 82.7747 182.631 83.1517 184.183C83.5287 185.734 83.5726 187.348 83.2806 188.918C83.0085 190.411 82.4186 191.829 81.5508 193.074C80.6831 194.319 79.5578 195.364 78.2511 196.136C72.26 199.799 65.6767 202.389 58.7965 203.792C55.812 204.371 52.779 204.663 49.7389 204.664C40.3067 204.664 31.2942 201.826 24.522 196.534Z" fill="#566246"/>
<path d="M85.2783 141.487C84.9 140.765 84.3679 140.134 83.7195 139.64C83.0711 139.145 82.3221 138.799 81.5254 138.625C80.7287 138.451 79.9036 138.455 79.1082 138.634C78.3128 138.814 77.5665 139.166 76.9218 139.665L65.8512 133.348L60.3716 139.139L76.1307 147.841C77.0413 148.868 78.2972 149.526 79.6603 149.689C81.0234 149.852 82.3991 149.51 83.5266 148.727C84.6542 147.944 85.4553 146.774 85.7782 145.44C86.101 144.105 85.9232 142.699 85.2783 141.487V141.487Z" fill="#8B5E38"/>
<path d="M68.4005 145.772L48.5586 139.538C45.8946 138.695 43.5532 137.055 41.8504 134.84C40.1475 132.624 39.1651 129.94 39.0357 127.149L38.182 107.87C38.134 106.785 38.3052 105.702 38.6855 104.685C39.0657 103.668 39.6472 102.739 40.395 101.952C41.1428 101.165 42.0417 100.537 43.0378 100.105C44.034 99.6736 45.1069 99.4474 46.1925 99.4401C47.2781 99.4328 48.354 99.6445 49.3558 100.063C50.3577 100.481 51.2649 101.097 52.0233 101.873C52.7816 102.65 53.3755 103.572 53.7694 104.584C54.1633 105.595 54.3492 106.676 54.3158 107.761L53.77 125.499L74.8876 134.111C75.2605 134.263 75.5942 134.497 75.864 134.796C76.1338 135.095 76.3326 135.451 76.4457 135.838C76.5588 136.224 76.5832 136.631 76.5172 137.029C76.4511 137.426 76.2963 137.803 76.0642 138.132L71.3905 144.761C71.0643 145.225 70.5986 145.573 70.0609 145.755C69.5233 145.937 68.9416 145.943 68.4005 145.772H68.4005Z" fill="#231F20"/>
<path d="M20.2245 91.0574C20.8921 87.0536 20.8675 82.9037 20.8437 78.8903C20.8373 77.8009 20.8308 76.7117 20.8375 75.6245C20.8685 70.5722 21.1821 65.2173 23.2476 60.2876C25.4956 54.9224 29.6586 51.0482 34.3836 49.9242C39.7106 48.6555 45.4909 51.46 47.2311 56.0778C48.3815 55.4281 49.6618 55.0418 50.9795 54.9468C52.2973 54.8518 53.6197 55.0506 54.8514 55.5287C56.083 56.0068 57.1932 56.7523 58.1018 57.7114C59.0104 58.6706 59.6947 59.8195 60.1055 61.0752C60.5162 62.3309 60.6431 63.6621 60.477 64.9728C60.3109 66.2835 59.8559 67.541 59.1448 68.6546C58.4338 69.7681 57.4844 70.7099 56.3653 71.4121C55.2461 72.1142 53.9851 72.5592 52.6731 72.7149L52.4499 72.7346L50.7091 68.2106C50.6992 68.2899 50.6898 68.3701 50.6802 68.4508C50.5694 69.389 50.4548 70.3588 49.6803 70.919C48.7134 71.6184 47.5092 73.9202 47.8611 76.2522C48.0805 77.4454 48.4074 78.6163 48.8379 79.7506C49.3163 80.9959 49.6636 82.2876 49.8742 83.6048C50.0955 85.2934 49.6536 87.002 48.6415 88.3716C48.3416 88.7713 47.9633 89.1057 47.5298 89.3545C47.0964 89.6032 46.6168 89.761 46.1203 89.8183L26.4981 91.8474L25.6208 85.2932L20.0393 92.1675L20.2245 91.0574Z" fill="#231F20"/>
<path d="M122.248 266.94H8.04039C7.88263 266.94 7.73133 266.877 7.61978 266.766C7.50823 266.654 7.44556 266.503 7.44556 266.345C7.44556 266.188 7.50823 266.036 7.61978 265.925C7.73133 265.813 7.88263 265.75 8.04039 265.75H122.248C122.406 265.75 122.557 265.813 122.669 265.925C122.78 266.036 122.843 266.188 122.843 266.345C122.843 266.503 122.78 266.654 122.669 266.766C122.557 266.877 122.406 266.94 122.248 266.94Z" fill="#CCCCCC"/>
</g>
<defs>
<clipPath id="clip0_3_7985">
<rect width="345.172" height="248.135" fill="white" transform="translate(0 18.8018)"/>
</clipPath>
</defs>
</svg>
