<svg width="353" height="266" viewBox="0 0 353 266" fill="none" xmlns="http://www.w3.org/2000/svg">
<g clip-path="url(#clip0_3_8111)">
<path opacity="0.19" d="M343.666 197.779C332.939 223.48 311.642 242.332 289.062 242.152C280.95 242.081 272.79 239.702 264.775 241.461C259.224 242.691 254.005 245.878 248.815 248.867C222.3 264.209 190.29 274.757 165.184 255.86C150.459 244.774 139.058 224.189 122.161 221.846C111.662 220.392 101.551 226.515 91.7533 231.613C77.6529 238.948 62.0605 244.478 47.3841 239.379C31.9445 233.992 20.4809 217.897 12.8339 199.314C10.9168 194.667 9.22498 189.87 7.76834 184.951C-4.07684 145.102 -3.25108 97.039 16.3452 62.6839C31.1395 36.6865 54.594 21.3537 78.1872 10.9404C132.348 -12.9564 185.203 10.3569 240.96 6.28131C256.066 5.17713 271.749 3.37275 285.863 10.4107C297.098 16.0034 306.327 26.7489 314.522 38.1497C329.899 59.542 342.806 84.543 349.051 112.614C351.313 122.755 352.602 133.217 352.889 143.764C353.374 162.526 350.536 181.315 343.666 197.779Z" fill="#566246"/>
<path opacity="0.19" d="M343.661 197.394C332.92 223.24 311.597 242.198 288.989 242.018C280.867 241.946 272.697 239.553 264.672 241.323C259.114 242.56 253.889 245.764 248.692 248.771C222.145 264.199 190.095 274.806 164.958 255.803C150.215 244.654 138.8 223.953 121.882 221.597C111.37 220.135 101.247 226.292 91.437 231.419C77.3192 238.795 61.7077 244.356 47.0132 239.228C31.5545 233.812 20.0768 217.625 12.4204 198.938C18.2774 195.453 25.2807 197.295 31.7629 198.486C51.3973 202.071 71.4124 198.638 89.6584 188.556C109.036 177.777 129.261 159.893 151.327 166.411C172.865 172.73 193.305 194.307 216.343 189.883C224.924 188.24 232.698 182.408 239.611 175.619C255.084 160.417 267.298 140.041 283.271 125.741C299.244 111.441 321.616 104.301 337.714 118.366C344.564 124.351 349.316 133.306 352.887 143.111C353.381 161.942 350.539 180.837 343.661 197.394Z" fill="#566246"/>
<path d="M261.693 79.252L278.846 106.314L265.835 114.273L248.793 117.986L261.693 79.252Z" fill="#566246"/>
<path d="M261.693 79.252L278.846 106.314L265.835 114.273L248.793 117.986L261.693 79.252Z" fill="#DDBEA9"/>
<path d="M143.097 193.464C143.285 193.499 150.834 244.008 150.834 244.008C150.834 244.008 156.323 245.326 156.129 244.008C155.934 242.69 156.885 226.535 158.009 223.344C159.133 220.152 155.928 193.464 155.928 193.464H143.097Z" fill="#8B5E38"/>
<path d="M167.593 193.123C167.593 193.123 168.724 218.645 170.972 225.043C173.221 231.441 176.045 244.604 176.045 244.604H182.984L181.707 192.589C181.707 192.589 173.797 187.35 167.593 193.123Z" fill="#8B5E38"/>
<path d="M149.399 240.612C151.12 240.389 152.868 241.125 154.582 240.938C155.298 240.77 156.033 240.697 156.768 240.723C156.883 240.731 156.992 240.78 157.073 240.861C157.137 240.96 157.164 241.078 157.15 241.194V243.484C157.15 244.588 157.15 245.795 156.456 246.662C155.762 247.53 154.471 247.842 153.312 247.939C152.938 247.997 152.555 247.966 152.195 247.849C151.843 247.677 151.535 247.428 151.293 247.12C150.523 246.281 149.94 245.795 149.836 244.664C149.822 244.303 149.454 240.612 149.399 240.612Z" fill="#FCFAED"/>
<path d="M182.434 241.615C182.553 241.588 182.676 241.59 182.793 241.622C182.91 241.654 183.017 241.715 183.105 241.799C183.192 241.883 183.257 241.988 183.294 242.104C183.331 242.22 183.338 242.343 183.316 242.462C183.4 244.104 183.293 245.75 182.996 247.368C182.96 247.802 182.843 248.226 182.649 248.617C182.15 249.491 181.033 249.755 180.033 249.81C178.514 249.907 176.793 249.623 175.87 248.423C175.418 247.678 175.14 246.84 175.058 245.973C174.899 245.071 174.579 244.204 174.434 243.308C174.302 242.538 174.503 242.163 175.287 242.052C176.39 241.886 177.542 241.865 178.66 241.796C179.929 241.699 181.185 241.643 182.434 241.615Z" fill="#FCFAED"/>
<path d="M137.122 260.026C137.049 260.455 137.092 260.896 137.247 261.303C137.431 261.655 137.687 261.966 137.998 262.214C138.308 262.462 138.667 262.644 139.051 262.746C141.577 263.614 149.307 258.347 151.75 257.271C153.898 256.368 155.955 255.259 157.891 253.961C158.085 253.823 157.578 247.022 157.44 245.988C157.442 245.91 157.428 245.833 157.399 245.76C157.371 245.687 157.328 245.621 157.273 245.565C157.172 245.505 157.058 245.472 156.94 245.468C155.774 245.371 154.602 245.468 153.429 245.468C152.829 245.477 152.229 245.452 151.632 245.392C151.097 245.239 150.548 245.139 149.994 245.093C149.106 245.19 147.399 247.98 146.629 248.41C137.823 253.344 137.358 258.375 137.122 260.026Z" fill="black"/>
<path d="M174.357 252.075C174.188 252.734 174.132 253.416 174.19 254.094C174.392 255.142 175.301 255.891 176.154 256.537C177.715 257.709 186.223 266.21 191.17 263.476C191.481 263.264 191.723 262.964 191.864 262.615C192.045 262.217 192.151 261.789 192.177 261.352C192.352 259.451 191.937 257.542 190.99 255.884C190.143 254.427 185.064 249.979 184.55 248.376C184.238 247.405 184.141 246.218 183.274 245.67C183.157 245.585 183.016 245.539 182.871 245.538C182.652 245.567 182.446 245.661 182.281 245.809C180.769 246.822 178.812 246.558 177.077 246.308C176.571 246.232 175.495 245.614 175.079 245.892C174.461 246.322 174.537 248.043 174.51 248.668C174.526 249.805 174.475 250.943 174.357 252.075Z" fill="black"/>
<path d="M185.516 74.7368C185.516 74.7368 209.067 60.0676 209.442 59.7484C209.816 59.4292 233.617 40.083 236.33 37.3699C239.044 34.6567 241.111 30.0422 244.907 31.541C248.703 33.0399 248.786 38.9589 243.95 44.3506C243.374 44.9959 239.606 44.9126 239.467 45.0861C239.141 45.4747 238.44 46.2311 236.337 48.5556C234.235 50.8802 221.363 64.8416 213.883 68.4222C206.402 72.0028 191.913 87.4283 191.913 87.4283L185.516 74.7368Z" fill="#8B5E38"/>
<path d="M135.332 76.6562C134.381 77.7665 113.328 65.9146 113.328 65.9146L88.4792 40.6494C88.4792 40.6494 84.2048 36.9231 81.1724 42.0372C78.14 47.1513 85.7591 52.1405 85.7591 52.1405L90.7344 52.9454C90.7344 52.9454 102.795 72.9993 105.771 74.0055C108.748 75.0117 130.579 92.741 130.787 90.4234C130.995 88.1057 135.332 76.6562 135.332 76.6562Z" fill="#8B5E38"/>
<path d="M145.671 53.9204C145.019 60.5264 146.198 67.6389 150.528 72.6559C151.548 73.8494 152.791 75.029 152.971 76.5903C152.995 77.3611 152.946 78.1325 152.825 78.8941C152.769 79.2755 152.794 79.6644 152.896 80.036C152.999 80.4075 153.178 80.7536 153.422 81.0522C153.553 81.189 153.713 81.295 153.891 81.3626C154.068 81.4302 154.258 81.4577 154.447 81.4431C154.636 81.4285 154.819 81.3722 154.984 81.2782C155.149 81.1842 155.291 81.0549 155.4 80.8995L157.162 84.6258C157.287 84.9861 157.532 85.2924 157.856 85.4932C158.161 85.5904 158.488 85.5904 158.793 85.4932C160.763 85.1305 162.632 84.3497 164.275 83.2033C164.476 83.0325 164.713 82.9092 164.969 82.8424C166.114 82.662 166.356 84.6119 167.46 85.0352C168.292 85.3613 169.139 84.6397 169.743 83.9804L172.144 81.3783C172.553 82.2477 173.263 82.9401 174.142 83.3282C174.408 82.5901 174.769 81.8902 175.218 81.2464C175.122 82.5347 175.258 83.8298 175.62 85.0699L176.834 83.5641C176.945 83.4184 177.091 83.2588 177.279 83.2727C177.404 83.296 177.518 83.3593 177.605 83.4531L179.589 85.2087C178.562 82.1763 179.02 78.8594 179.742 75.7507C180.464 72.642 181.442 69.5055 181.435 66.3413C181.435 62.2403 179.797 58.3406 178.201 54.5449C177.551 52.7857 176.664 51.1235 175.565 49.6043C173.941 47.5226 171.623 46.2041 169.319 44.9898C167.353 43.8373 165.199 43.0388 162.956 42.6305C161.2 42.4628 159.43 42.5211 157.69 42.804C155.839 43.026 153.977 43.2573 152.104 43.4979C150.494 43.7269 149.772 43.8171 148.745 45.08C146.726 47.6197 145.976 50.8256 145.671 53.9204Z" fill="black"/>
<path d="M175.461 63.0004C175.567 63.5731 175.477 64.1649 175.204 64.6797C174.931 65.1903 174.62 65.6797 174.274 66.1438C174.003 66.5858 173.694 67.0037 173.351 67.3929C173.004 67.7865 172.521 68.0344 171.998 68.0868C170.042 68.1492 170.805 64.874 171.457 63.847C172.172 62.6465 174.871 60.5926 175.461 63.0004Z" fill="#8B5E38"/>
<path d="M172.756 64.3543C172.91 64.1246 173.043 63.8806 173.151 63.6257C173.26 63.3669 173.447 63.1486 173.685 63.0012C173.804 62.9304 173.943 62.9015 174.08 62.9191C174.218 62.9367 174.345 62.9998 174.442 63.0984C174.664 63.3759 174.518 63.7923 174.345 64.0837C173.942 64.7776 173.956 65.9017 173.325 66.4152C173.005 66.6318 172.66 66.8089 172.298 66.9426C171.842 67.0549 171.366 67.0549 170.91 66.9426C170.722 66.8038 171.146 65.867 171.125 65.6311C171.104 65.3952 171.125 65.0482 171.201 64.9372C171.278 64.8262 171.611 64.9372 171.749 64.9372C171.948 64.9143 172.14 64.8508 172.313 64.7505C172.486 64.6502 172.637 64.5153 172.756 64.3543Z" fill="#8B5E38"/>
<path d="M51.4735 84.9082L33.3 106.856L60.3277 130.873L68.0093 123.934L70.5837 87.0663C70.6808 86.0393 51.4735 84.9082 51.4735 84.9082Z" fill="#566246"/>
<path d="M51.4735 84.9082L33.3 106.856L60.3277 130.873L68.0093 123.934L70.5837 87.0663C70.6808 86.0393 51.4735 84.9082 51.4735 84.9082Z" fill="url(#paint0_linear_3_8111)"/>
<path d="M192.496 86.2627C192.42 86.7018 192.217 87.1093 191.913 87.4353C190.789 88.9894 189.55 90.4576 188.208 91.8278C186.126 93.847 183.566 95.4708 182.185 98.0174C180.214 101.66 181.734 135.266 181.879 141.255C181.921 142.969 155.324 144.03 143.666 142.761C143.819 136.606 147.337 125.892 146.074 119.862C145.054 115.004 144.284 117.738 141.647 109.821C140.564 106.587 141.369 102.687 141.945 99.322C142.327 97.0529 132.119 92.9519 130.787 90.44C130.867 88.8054 131.086 87.1805 131.439 85.5826C132.042 82.8453 133.03 80.2076 134.375 77.7484C134.571 77.29 134.902 76.9025 135.325 76.6382C135.835 76.4496 136.392 76.4301 136.914 76.5826C140.931 77.3083 144.857 78.4718 148.621 80.0522C152.146 81.5233 155.809 80.8918 159.522 80.3922C168.746 79.1503 177.72 76.4767 186.119 72.4678C188.136 76.6775 190.153 80.8849 192.17 85.0899C192.382 85.4445 192.495 85.8496 192.496 86.2627Z" fill="#FCFAED"/>
<path d="M192.497 86.2639C192.42 86.7031 192.218 87.1106 191.914 87.4366C190.789 88.9907 189.551 90.4589 188.208 91.829C186.126 93.8483 183.566 95.4721 182.185 98.0187C180.214 101.662 181.734 135.268 181.88 141.256C181.914 142.741 161.972 143.733 149.051 143.15L170.715 141.492C170.715 141.492 179.902 109.253 177.598 100.662C175.517 92.8977 184.537 83.8769 190.144 80.8931L192.177 85.1328C192.38 85.4759 192.49 85.8656 192.497 86.2639Z" fill="url(#paint1_linear_3_8111)"/>
<path d="M159.445 75.4867C159.369 74.4875 159.223 73.405 159.723 72.5446C160.284 71.7969 161.069 71.2476 161.964 70.9763C163.616 70.2824 165.649 69.6232 167.078 70.6988C167.851 71.3899 168.357 72.3305 168.508 73.3564C168.935 75.5027 169.059 77.6984 168.876 79.8792C168.764 81.7944 168.508 83.8275 167.273 85.2916C166.434 86.1616 165.441 86.8676 164.344 87.3734C162.859 88.1644 160.916 88.9208 159.626 87.8383C155.768 84.6533 159.737 79.5322 159.445 75.4867Z" fill="#8B5E38"/>
<path d="M143.666 142.762L134.964 195.228C134.964 195.228 143.874 196.866 164.476 194.458C175.995 193.119 184.329 193.515 189.457 194.125C190.122 194.205 190.796 194.121 191.421 193.881C192.047 193.642 192.604 193.253 193.046 192.749C193.487 192.246 193.799 191.642 193.955 190.991C194.111 190.339 194.105 189.66 193.939 189.011L181.9 141.256C181.9 141.256 146.615 137.815 143.666 142.762Z" fill="#566246"/>
<path d="M189.436 194.125C187.319 193.869 184.655 193.66 181.442 193.591C175.773 193.489 170.105 193.779 164.476 194.458C143.874 196.866 134.964 195.229 134.964 195.229L143.666 142.762C145.532 139.626 160.382 139.862 171.006 140.452H171.137C176.612 140.757 180.935 141.145 181.74 141.236H181.879V141.277L182.067 142.027L193.905 188.99C194.074 189.639 194.083 190.32 193.929 190.973C193.776 191.626 193.466 192.232 193.026 192.737C192.585 193.243 192.028 193.634 191.403 193.876C190.777 194.118 190.102 194.203 189.436 194.125Z" fill="#566246"/>
<path d="M80.7226 46.1875L66.1089 76.4141H67.4342L81.1736 46.9786C81.1736 46.9786 81.4373 46.1875 80.7226 46.1875Z" fill="#566246"/>
<path d="M81.1724 77.7141L85.7591 52.1714L86.8208 52.3449L82.3104 78.7619C82.3104 78.7619 81.2487 79.6779 81.1724 77.7141Z" fill="#566246"/>
<path d="M51.7856 74.938C51.7856 74.938 77.4602 71.3019 90.2974 83.4522L93.5796 87.005L82.7061 115.455C82.7061 115.455 76.6969 119.688 70.9097 118.495C65.1225 117.301 54.3392 114.491 54.3392 114.491C54.3392 114.491 50.8696 113.38 50.8696 108.086C50.8696 102.791 51.7856 74.938 51.7856 74.938Z" fill="#566246"/>
<path d="M51.7856 74.938C51.7856 74.938 77.4602 71.3019 90.2974 83.4522L93.5796 87.005L82.7061 115.455C82.7061 115.455 76.6969 119.688 70.9097 118.495C65.1225 117.301 54.3392 114.491 54.3392 114.491C54.3392 114.491 50.8696 113.38 50.8696 108.086C50.8696 102.791 51.7856 74.938 51.7856 74.938Z" fill="#EBD8D0"/>
<path d="M239.467 45.084L233.86 83.0338H234.679L240.307 45.084H239.467Z" fill="#566246"/>
<path d="M243.951 44.3542L250.453 75.7258L251.667 75.5107L244.589 43.584L243.951 44.3542Z" fill="#566246"/>
<path d="M228.836 85.9438C228.836 85.9438 244.796 72.364 258.258 75.7225H262.616C262.616 75.7225 259.972 101.473 260.853 107.871C261.735 114.269 241.799 120.979 240.3 120.625C238.801 120.271 233.159 120.979 232.452 112.687C231.744 104.395 228.836 85.9438 228.836 85.9438Z" fill="#566246"/>
<path d="M228.836 85.9438C228.836 85.9438 244.796 72.364 258.258 75.7225H262.616C262.616 75.7225 259.972 101.473 260.853 107.871C261.735 114.269 241.799 120.979 240.3 120.625C238.801 120.271 233.159 120.979 232.452 112.687C231.744 104.395 228.836 85.9438 228.836 85.9438Z" fill="white"/>
<path d="M81.1722 46.9821L78.5908 83.0653H79.8815L81.9632 46.9821C81.9632 46.9821 81.4081 46.0314 81.1722 46.9821Z" fill="#566246"/>
<path d="M83.165 49.9761L90.7425 82.3885L92.3732 81.9305L84.1226 50.892L83.165 49.9761Z" fill="#566246"/>
<path d="M70.882 82.8366L79.8889 83.0378L98.3954 80.9214L107.902 117.456L81.9914 130.855L67.7039 128.371L70.882 82.8366Z" fill="#DDBEA9"/>
<path d="M81.9914 130.856L79.8889 83.0391L70.882 82.8379L67.7039 128.372L81.9914 130.856Z" fill="url(#paint2_linear_3_8111)"/>
<path d="M237.08 90.4806L241.541 91.2786L249.32 93.0411L265.266 85.4498L251.666 83.6387L237.08 90.4806Z" fill="#566246"/>
<path d="M237.08 90.4806L241.541 91.2786L249.32 93.0411L265.266 85.4498L251.666 83.6387L237.08 90.4806Z" fill="url(#paint3_linear_3_8111)"/>
<path d="M265.266 85.4536L249.32 93.045L237.08 90.4844L238.627 124.687L249.32 128.372L265.932 119.393L265.266 85.4536Z" fill="#566246"/>
<path d="M153.062 71.079C155.04 74.7775 159.308 77.6086 163.381 76.5053C166.413 75.6796 168.536 72.9247 169.834 70.0658C170.949 67.4235 171.777 64.6691 172.304 61.85C172.894 59.1507 173.415 56.3612 172.901 53.648C172.314 51.0213 170.808 48.6908 168.653 47.0773C166.499 45.4638 163.839 44.6736 161.153 44.8493C149.093 46.015 148.712 62.9186 153.062 71.079Z" fill="#8B5E38"/>
<path d="M158.967 36.4933C163.866 35.4524 169.376 36.3337 173.109 39.6436C176.842 42.9535 178.57 48.4285 182.574 51.5927C183.864 52.6127 185.564 53.383 187.14 52.8972C186.702 53.821 186.016 54.6046 185.158 55.1599C184.3 55.7151 183.304 56.0202 182.282 56.0406C182.953 56.7268 183.805 57.2082 184.739 57.4284C184.221 58.0958 183.564 58.6426 182.814 59.0309C182.064 59.4191 181.239 59.6395 180.395 59.6767C180.816 59.9997 181.102 60.4667 181.2 60.9882C179.514 61.8556 177.494 61.7723 175.649 61.3768C174.089 61.0364 172.615 60.3815 171.317 59.452C170.018 58.5226 168.924 57.3382 168.099 55.9712C164.144 48.9836 157.218 43.8695 151.695 52.6266C149.974 51.4817 148.142 50.1632 147.858 48.1231C147.053 42.0723 153.888 37.5688 158.967 36.4933Z" fill="black"/>
<path d="M240.307 45.0881V91.2815H241.542L240.924 44.9424L240.307 45.0881Z" fill="#566246"/>
<path d="M242.443 44.804L255.031 85.9458H256.197L243.325 44.6514L242.443 44.804Z" fill="#566246"/>
<path d="M249.32 93.0423V128.369L242.444 123.644L241.542 91.2798L249.32 93.0423Z" fill="url(#paint4_linear_3_8111)"/>
<path d="M238.627 124.682L242.444 123.641L241.541 91.2775L237.08 90.4795L238.627 124.682Z" fill="url(#paint5_linear_3_8111)"/>
<path d="M265.267 85.4536L249.321 93.045V128.372L256.197 124.659L265.267 85.4536Z" fill="url(#paint6_linear_3_8111)"/>
<path d="M141.945 99.3307C142.327 97.0616 132.119 92.9606 130.787 90.4487C130.867 88.8141 131.086 87.1892 131.439 85.5913C131.439 85.5913 142.223 90.3029 142.813 93.0369C143.402 95.7709 141.945 99.3307 141.945 99.3307Z" fill="url(#paint7_linear_3_8111)"/>
<path d="M189.436 194.125C187.32 193.868 184.655 193.66 181.443 193.591L173.116 164.155C173.116 164.155 170.396 142.734 171.034 140.451H171.166L181.769 141.235H181.908V141.277L182.095 142.026L193.933 188.99C194.104 189.641 194.112 190.325 193.958 190.98C193.803 191.636 193.49 192.243 193.047 192.75C192.603 193.257 192.042 193.647 191.413 193.887C190.783 194.126 190.105 194.208 189.436 194.125Z" fill="url(#paint8_linear_3_8111)"/>
</g>
<defs>
<linearGradient id="paint0_linear_3_8111" x1="1919.5" y1="10317.5" x2="4063.57" y2="9876.85" gradientUnits="userSpaceOnUse">
<stop stop-opacity="0"/>
<stop offset="0.88" stop-opacity="0.8"/>
<stop offset="0.97"/>
</linearGradient>
<linearGradient id="paint1_linear_3_8111" x1="9201.36" y1="12670.5" x2="14585.9" y2="14512.6" gradientUnits="userSpaceOnUse">
<stop stop-opacity="0"/>
<stop offset="0.88" stop-opacity="0.8"/>
<stop offset="0.97"/>
</linearGradient>
<linearGradient id="paint2_linear_3_8111" x1="1139.56" y1="6496.17" x2="2425.83" y2="6690.49" gradientUnits="userSpaceOnUse">
<stop stop-opacity="0"/>
<stop offset="0.88" stop-opacity="0.8"/>
<stop offset="0.97"/>
</linearGradient>
<linearGradient id="paint3_linear_3_8111" x1="10439.7" y1="1015.51" x2="10439.7" y2="1428.56" gradientUnits="userSpaceOnUse">
<stop stop-opacity="0"/>
<stop offset="0.88" stop-opacity="0.8"/>
<stop offset="0.97"/>
</linearGradient>
<linearGradient id="paint4_linear_3_8111" x1="3139.49" y1="5569.75" x2="2779.26" y2="5600.61" gradientUnits="userSpaceOnUse">
<stop stop-opacity="0"/>
<stop offset="0.88" stop-opacity="0.8"/>
<stop offset="0.97"/>
</linearGradient>
<linearGradient id="paint5_linear_3_8111" x1="2158.43" y1="4960.6" x2="1931.16" y2="4986.02" gradientUnits="userSpaceOnUse">
<stop stop-opacity="0"/>
<stop offset="0.88" stop-opacity="0.8"/>
<stop offset="0.97"/>
</linearGradient>
<linearGradient id="paint6_linear_3_8111" x1="239.127" y1="87.9239" x2="299.691" y2="151.229" gradientUnits="userSpaceOnUse">
<stop stop-color="white" stop-opacity="0"/>
<stop offset="0.84" stop-color="white" stop-opacity="0.84"/>
<stop offset="0.97" stop-color="white"/>
</linearGradient>
<linearGradient id="paint7_linear_3_8111" x1="2783.82" y1="2575.16" x2="2278.84" y2="2836.18" gradientUnits="userSpaceOnUse">
<stop stop-opacity="0"/>
<stop offset="0.88" stop-opacity="0.8"/>
<stop offset="0.97"/>
</linearGradient>
<linearGradient id="paint8_linear_3_8111" x1="5277.94" y1="16396.5" x2="6708.41" y2="16358.2" gradientUnits="userSpaceOnUse">
<stop stop-opacity="0"/>
<stop offset="0.88" stop-opacity="0.8"/>
<stop offset="0.97"/>
</linearGradient>
<clipPath id="clip0_3_8111">
<rect width="352.928" height="266" fill="white"/>
</clipPath>
</defs>
</svg>
