<svg width="343" height="308" viewBox="0 0 343 308" fill="none" xmlns="http://www.w3.org/2000/svg">
<path fill-rule="evenodd" clip-rule="evenodd" d="M161.269 45.501C186.769 93.7471 282.156 54.8488 304.269 118.999C325.941 181.87 372.366 240.921 315.69 280.909C255.671 323.256 138.388 310.605 77.7683 268.999C18.9202 228.609 -15.0999 158.558 6.57406 93.7471C29.2473 25.9478 135.769 -2.74512 161.269 45.501Z" fill="#E1E3DE"/>
<path d="M336.473 252H56.5272C56.3874 252 56.2533 251.947 56.1544 251.854C56.0555 251.76 56 251.633 56 251.5C56 251.367 56.0555 251.24 56.1544 251.146C56.2533 251.053 56.3874 251 56.5272 251H336.473C336.613 251 336.747 251.053 336.846 251.146C336.944 251.24 337 251.367 337 251.5C337 251.633 336.944 251.76 336.846 251.854C336.747 251.947 336.613 252 336.473 252Z" fill="#D1D3D4"/>
<path d="M86.0459 274.202L84.7461 284.951C84.7461 284.951 94.8325 285.445 95.0015 284.951C95.1704 284.457 98.4719 271.018 98.4719 271.018L86.0459 274.202Z" fill="#8B5E38"/>
<path d="M91.9862 285.839C90.4004 285.839 88.0868 285.774 84.6943 285.605C84.6044 285.6 84.5163 285.577 84.4358 285.537C84.3552 285.496 84.2839 285.44 84.2264 285.371C84.1686 285.303 84.125 285.224 84.0982 285.139C84.0714 285.055 84.0619 284.965 84.0704 284.877L85.3702 274.127C85.3902 273.997 85.4474 273.874 85.535 273.775C85.6226 273.676 85.7368 273.604 85.8641 273.568L98.2642 270.397C98.3718 270.368 98.4852 270.368 98.5927 270.398C98.7001 270.428 98.7976 270.486 98.8751 270.566C98.9564 270.643 99.016 270.74 99.048 270.847C99.0799 270.954 99.0831 271.068 99.0571 271.177C98.7191 272.555 95.7296 284.656 95.5736 285.163C95.4176 285.67 95.3916 285.839 91.9862 285.839ZM85.4872 284.344C89.3866 284.513 93.3769 284.591 94.4818 284.448C94.8587 282.992 96.4185 276.649 97.6013 271.918L86.67 274.725L85.4872 284.344Z" fill="#231F20"/>
<path d="M31.4809 257.854L25.7358 267.03C25.7358 267.03 34.6654 271.748 35.0294 271.371C35.3933 270.994 44.1279 260.219 44.1279 260.219L31.4809 257.854Z" fill="#8B5E38"/>
<path d="M35.0292 272.033C34.3013 272.033 32.3126 271.24 25.4367 267.601C25.3558 267.562 25.2846 267.506 25.2284 267.436C25.1721 267.367 25.1323 267.285 25.1118 267.198C25.0854 267.113 25.0787 267.023 25.0922 266.936C25.1058 266.848 25.1391 266.764 25.1898 266.691L30.9349 257.502C31.0068 257.393 31.1094 257.307 31.2296 257.256C31.3499 257.206 31.4825 257.191 31.6108 257.216L44.1928 259.581C44.3047 259.601 44.4094 259.649 44.4967 259.722C44.584 259.795 44.6506 259.889 44.6901 259.996C44.7295 260.102 44.7404 260.217 44.7215 260.329C44.7027 260.441 44.6548 260.546 44.5827 260.634C43.6859 261.739 35.8611 271.435 35.4842 271.812C35.4334 271.885 35.365 271.943 35.2854 271.982C35.2058 272.02 35.1176 272.038 35.0292 272.033ZM26.6585 266.834C30.064 268.615 33.7034 270.409 34.7563 270.733C35.7181 269.564 39.7865 264.533 42.88 260.699L31.8057 258.541L26.6585 266.834Z" fill="#231F20"/>
<path d="M58.5947 137.908C61.0773 139.403 83.0309 190.498 85.8904 195.229C88.75 199.96 83.1998 276.531 83.1998 276.531H99.2913C99.2913 276.531 117.15 215.077 117.15 199.323C117.15 183.57 96.3538 132.072 96.3538 132.072L58.6597 133.372" fill="#231F20"/>
<path d="M99.2911 277.18H83.2517C83.1618 277.181 83.0728 277.162 82.9903 277.126C82.9079 277.091 82.8338 277.038 82.7727 276.972C82.7116 276.906 82.6649 276.828 82.6355 276.743C82.606 276.658 82.5946 276.568 82.6018 276.478C84.8504 245.777 87.45 198.894 85.3963 195.566C84.2135 193.656 80.0932 184.544 75.3099 173.99C68.7329 159.484 59.7124 139.61 58.2436 138.453C58.1004 138.362 57.9985 138.219 57.9597 138.054C57.9208 137.889 57.9481 137.715 58.0356 137.569C58.1291 137.425 58.2748 137.323 58.4421 137.284C58.6094 137.246 58.7852 137.273 58.9325 137.361C60.3493 138.219 65.4315 149.19 76.4927 173.457C81.25 183.972 85.3573 193.045 86.4881 194.877C89.3607 199.531 84.7074 265.339 83.8885 275.881H98.7322C100.383 270.161 116.435 214.088 116.435 199.323C116.435 184.557 97.8483 137.66 95.8727 132.734L58.6205 134.034C58.4482 134.034 58.2829 133.965 58.161 133.844C58.0391 133.722 57.9706 133.556 57.9706 133.384C57.9706 133.212 58.0391 133.046 58.161 132.924C58.2829 132.803 58.4482 132.734 58.6205 132.734L96.3146 131.434C96.4477 131.428 96.5794 131.463 96.6913 131.535C96.8033 131.608 96.8897 131.713 96.9385 131.837C97.7964 133.943 117.826 183.621 117.826 199.323C117.826 215.024 100.591 274.204 99.902 276.738C99.8572 276.865 99.7746 276.976 99.6655 277.055C99.5564 277.134 99.4258 277.177 99.2911 277.18Z" fill="#231F20"/>
<path d="M52.7712 142L55.0979 195.733L26.8403 258.54L40.9041 267.079C41.619 268.925 77.8053 216.868 81.8477 201.024C84.6422 190.118 82.1856 137.893 82.1856 137.893L52.7712 142Z" fill="#231F20"/>
<path d="M40.9953 267.78C40.8449 267.778 40.6991 267.728 40.5793 267.637L26.5026 259.111C26.367 259.029 26.2658 258.901 26.218 258.75C26.1701 258.599 26.1789 258.436 26.2426 258.292L54.3831 195.603L52.1215 142.025C52.1195 141.866 52.1749 141.711 52.2776 141.59C52.3802 141.468 52.5232 141.387 52.6804 141.362L82.0948 137.268C82.1842 137.255 82.2754 137.261 82.3624 137.285C82.4494 137.31 82.5303 137.352 82.6 137.41C82.6698 137.467 82.7267 137.539 82.7673 137.619C82.8079 137.7 82.8311 137.788 82.8357 137.879C82.9396 140.01 85.2533 190.325 82.4717 201.205C78.5723 216.399 43.7898 267.624 41.0213 267.78H40.9953ZM27.6594 258.305L40.9823 266.337C44.8816 262.997 77.3765 215.918 81.2759 200.841C83.8755 190.832 81.8998 144.95 81.6269 138.607L53.4993 142.506L55.7349 195.642C55.7608 195.74 55.7608 195.843 55.7349 195.94L27.6594 258.305Z" fill="#231F20"/>
<path d="M84.7205 284.952L83.2388 293.219C83.2388 293.219 109.859 294.87 109.04 293.219C108.221 291.568 94.9759 284.952 94.9759 284.952H84.7205Z" fill="#231F20"/>
<path d="M101.761 294.614C96.562 294.614 89.5171 294.263 83.2001 293.873C83.1084 293.867 83.0189 293.842 82.9377 293.799C82.8564 293.756 82.7852 293.696 82.7287 293.624C82.6722 293.551 82.6317 293.468 82.6099 293.378C82.5881 293.289 82.5854 293.196 82.6022 293.106L84.0839 284.839C84.1112 284.69 84.1899 284.555 84.3062 284.458C84.4225 284.36 84.5692 284.307 84.7208 284.306H94.9762C95.0768 284.306 95.1756 284.333 95.2622 284.384C98.4207 285.957 108.754 291.221 109.56 292.937C109.631 293.059 109.668 293.198 109.668 293.34C109.668 293.481 109.631 293.62 109.56 293.743C109.144 294.38 106.076 294.614 101.761 294.614ZM84.006 292.625C94.2093 293.236 105.297 293.574 108.039 293.08C103.815 290.279 99.3979 287.781 94.8202 285.606H85.2668L84.006 292.625Z" fill="#231F20"/>
<path d="M25.7357 267.028L24.9558 267.951C23.552 269.641 20.7965 273.15 21.5373 274.047C22.5382 275.204 44.6087 288.28 44.0758 287.448C43.5429 286.616 34.9772 271.37 34.9772 271.37" fill="#231F20"/>
<path d="M44.1665 288.111C43.5556 288.111 41.6839 287.188 32.7024 281.846C30.1028 280.338 21.7841 275.347 21.0042 274.476C20.6403 274.06 19.8084 273.085 24.4097 267.535C24.8776 266.963 25.2025 266.599 25.2025 266.599C25.2618 266.539 25.3326 266.491 25.4107 266.458C25.4889 266.425 25.5727 266.408 25.6575 266.408C25.7422 266.408 25.8261 266.425 25.9042 266.458C25.9823 266.491 26.0531 266.539 26.1124 266.599C26.1746 266.658 26.2241 266.728 26.258 266.806C26.2919 266.885 26.3093 266.969 26.3093 267.054C26.3093 267.14 26.2919 267.224 26.258 267.302C26.2241 267.38 26.1746 267.451 26.1124 267.509C26.1124 267.509 25.8004 267.86 25.3455 268.406C22.486 271.864 21.8881 273.41 21.9661 273.735C22.7589 274.567 37.2776 283.289 42.3988 286.07C40.0592 281.963 34.6001 272.24 34.3531 271.773C34.3122 271.698 34.2865 271.617 34.2774 271.533C34.2684 271.449 34.2762 271.364 34.3004 271.283C34.3246 271.201 34.3647 271.126 34.4184 271.061C34.4721 270.995 34.5382 270.941 34.6131 270.902C34.6859 270.858 34.7668 270.831 34.8508 270.82C34.9347 270.809 35.0201 270.815 35.1015 270.838C35.183 270.861 35.2589 270.901 35.3247 270.954C35.3904 271.007 35.4446 271.074 35.4839 271.149C38.4345 276.413 44.1016 286.551 44.5825 287.188C44.6709 287.333 44.7038 287.505 44.6751 287.672C44.6464 287.84 44.5581 287.991 44.4265 288.098C44.3427 288.126 44.2527 288.131 44.1665 288.111Z" fill="#231F20"/>
<path d="M321.418 150.766L278.005 151.031L278.421 219.139L321.834 218.874L321.418 150.766Z" fill="#E6E7E8"/>
<path d="M278.429 219.716C278.272 219.71 278.124 219.645 278.013 219.534C277.902 219.423 277.837 219.275 277.831 219.118L277.363 151.022C277.361 150.943 277.375 150.865 277.405 150.791C277.434 150.718 277.478 150.651 277.534 150.595C277.59 150.54 277.657 150.496 277.73 150.466C277.803 150.437 277.882 150.422 277.961 150.424L321.361 150.151C321.441 150.146 321.52 150.158 321.595 150.187C321.669 150.216 321.736 150.262 321.79 150.32C321.898 150.437 321.958 150.59 321.959 150.749L322.375 218.845C322.377 218.923 322.363 219.001 322.334 219.073C322.305 219.146 322.263 219.212 322.208 219.267C322.154 219.323 322.089 219.367 322.017 219.398C321.945 219.428 321.868 219.443 321.79 219.443L278.377 219.716H278.429ZM278.611 151.607L279.014 218.521L321.244 218.261L320.828 151.347L278.611 151.607Z" fill="#231F20"/>
<path d="M268.492 164.644L207.795 173.575L215.464 225.694L276.161 216.764L268.492 164.644Z" fill="#DDBEA9"/>
<path d="M215.48 226.255C215.337 226.256 215.199 226.205 215.092 226.112C214.984 226.019 214.914 225.889 214.895 225.748L207.226 173.626C207.213 173.551 207.216 173.475 207.234 173.401C207.252 173.327 207.285 173.258 207.33 173.197C207.374 173.132 207.432 173.078 207.5 173.038C207.567 172.997 207.642 172.972 207.72 172.963L268.407 164.021C268.564 163.998 268.724 164.039 268.85 164.134C268.977 164.229 269.061 164.371 269.083 164.528L276.765 216.649C276.779 216.806 276.737 216.962 276.648 217.091C276.551 217.215 276.413 217.298 276.258 217.325L215.571 226.255H215.48ZM208.474 174.055L215.974 225.007L275.478 216.246L267.992 165.294L208.474 174.055Z" fill="#231F20"/>
<path d="M249.503 130.37L202.423 140.249L209.13 172.216L256.21 162.338L249.503 130.37Z" fill="#E6E7E8"/>
<path d="M209.124 172.833C208.987 172.831 208.854 172.782 208.748 172.694C208.642 172.607 208.568 172.487 208.539 172.352L201.832 140.39C201.817 140.314 201.818 140.236 201.833 140.16C201.849 140.084 201.879 140.012 201.923 139.948C201.963 139.883 202.016 139.826 202.079 139.781C202.141 139.737 202.212 139.705 202.287 139.688L249.366 129.81C249.523 129.782 249.686 129.815 249.821 129.901C249.886 129.943 249.942 129.998 249.985 130.063C250.027 130.128 250.056 130.201 250.068 130.278L256.774 162.24C256.792 162.316 256.793 162.395 256.78 162.471C256.766 162.548 256.737 162.621 256.695 162.687C256.652 162.752 256.597 162.808 256.533 162.852C256.468 162.896 256.396 162.926 256.32 162.942L209.241 172.82L209.124 172.833ZM203.119 140.728L209.618 171.533L255.527 161.902L249.028 131.097L203.119 140.728Z" fill="#231F20"/>
<path d="M291.347 118.062L255.877 123.433L259.788 149.265L295.258 143.894L291.347 118.062Z" fill="#231F20"/>
<path d="M259.79 149.841C259.663 149.844 259.539 149.802 259.439 149.724C259.374 149.678 259.319 149.62 259.276 149.553C259.234 149.486 259.205 149.412 259.192 149.334L255.293 123.507C255.28 123.43 255.282 123.351 255.3 123.275C255.318 123.199 255.351 123.128 255.397 123.065C255.443 123.002 255.502 122.949 255.568 122.908C255.635 122.868 255.709 122.842 255.787 122.831L291.245 117.463C291.322 117.45 291.401 117.452 291.477 117.47C291.553 117.488 291.624 117.521 291.687 117.567C291.75 117.613 291.803 117.671 291.843 117.738C291.884 117.805 291.91 117.879 291.921 117.957L295.82 143.784C295.833 143.86 295.831 143.939 295.813 144.015C295.795 144.091 295.762 144.162 295.716 144.225C295.672 144.29 295.614 144.345 295.547 144.385C295.48 144.425 295.404 144.451 295.326 144.459L259.855 149.841H259.79ZM256.567 123.923L260.297 148.619L294.586 143.42L290.855 118.723L256.567 123.923Z" fill="#231F20"/>
<path d="M253.993 102.931L221.636 119.015L229.041 133.913L261.399 117.83L253.993 102.931Z" fill="#D8E2DC"/>
<path d="M229.036 134.524C228.926 134.524 228.818 134.494 228.724 134.436C228.63 134.379 228.554 134.297 228.503 134.199L221.108 119.29C221.05 119.149 221.05 118.99 221.108 118.848C221.162 118.699 221.268 118.575 221.407 118.497L253.771 102.419C253.917 102.36 254.08 102.36 254.226 102.419C254.3 102.444 254.367 102.483 254.425 102.535C254.483 102.586 254.531 102.648 254.564 102.718L261.973 117.614C262.032 117.76 262.032 117.922 261.973 118.068C261.948 118.142 261.909 118.209 261.858 118.267C261.806 118.325 261.744 118.373 261.674 118.406L229.27 134.459C229.197 134.494 229.117 134.516 229.036 134.524ZM222.433 119.303L229.27 133.133L260.556 117.536L253.68 103.693L222.433 119.303Z" fill="#231F20"/>
<path d="M315.059 122.489L298.364 128.685L305.464 147.816L322.159 141.621L315.059 122.489Z" fill="white"/>
<path d="M305.465 148.425C305.384 148.444 305.299 148.444 305.218 148.425C305.147 148.394 305.083 148.349 305.03 148.294C304.976 148.238 304.934 148.172 304.906 148.1L297.809 128.967C297.754 128.819 297.761 128.655 297.826 128.511C297.892 128.367 298.012 128.256 298.16 128.2L314.85 122.013C314.998 121.958 315.162 121.965 315.305 122.03C315.449 122.096 315.561 122.216 315.616 122.364L322.713 141.484C322.742 141.557 322.756 141.636 322.754 141.714C322.752 141.793 322.734 141.871 322.701 141.942C322.668 142.014 322.621 142.078 322.563 142.131C322.505 142.184 322.437 142.225 322.362 142.251L305.673 148.451L305.465 148.425ZM299.122 129.058L305.816 147.073L321.413 141.289L314.733 123.274L299.122 129.058Z" fill="#231F20"/>
<path d="M269.404 144.365L250.326 146.836L252.797 165.914L271.875 163.443L269.404 144.365Z" fill="#E6E7E8"/>
<path d="M252.797 166.502C252.653 166.5 252.515 166.446 252.408 166.351C252.3 166.255 252.231 166.124 252.212 165.982L249.742 146.914C249.721 146.757 249.763 146.598 249.859 146.472C249.904 146.408 249.962 146.355 250.029 146.317C250.097 146.279 250.172 146.256 250.249 146.251L269.33 143.768C269.487 143.75 269.645 143.794 269.769 143.892C269.893 143.989 269.974 144.132 269.993 144.288L272.463 163.369C272.474 163.446 272.469 163.524 272.45 163.6C272.43 163.675 272.396 163.745 272.348 163.807C272.301 163.869 272.242 163.92 272.175 163.959C272.107 163.998 272.033 164.022 271.956 164.032L252.875 166.502H252.797ZM250.99 147.343L253.317 165.241L271.215 162.927L268.888 145.029L250.99 147.343Z" fill="#231F20"/>
<path d="M218.002 294.35C223.479 294.35 227.919 289.91 227.919 284.433C227.919 278.955 223.479 274.515 218.002 274.515C212.525 274.515 208.084 278.955 208.084 284.433C208.084 289.91 212.525 294.35 218.002 294.35Z" fill="#231F20"/>
<path d="M218.001 295C215.911 295 213.868 294.38 212.13 293.219C210.392 292.058 209.038 290.407 208.238 288.477C207.438 286.546 207.229 284.421 207.637 282.371C208.045 280.321 209.051 278.438 210.529 276.96C212.007 275.482 213.89 274.476 215.94 274.068C217.989 273.661 220.114 273.87 222.045 274.67C223.976 275.469 225.626 276.824 226.788 278.562C227.949 280.299 228.569 282.343 228.569 284.433C228.565 287.234 227.451 289.92 225.47 291.901C223.489 293.882 220.803 294.996 218.001 295ZM218.001 275.165C216.168 275.165 214.376 275.709 212.852 276.727C211.328 277.745 210.141 279.193 209.439 280.886C208.738 282.579 208.554 284.443 208.912 286.241C209.269 288.038 210.152 289.69 211.448 290.986C212.744 292.282 214.395 293.164 216.193 293.522C217.991 293.88 219.854 293.696 221.548 292.995C223.241 292.293 224.689 291.105 225.707 289.581C226.725 288.057 227.269 286.266 227.269 284.433C227.265 281.976 226.288 279.62 224.551 277.883C222.813 276.146 220.458 275.168 218.001 275.165Z" fill="#231F20"/>
<path d="M215.804 269.859V282.662C215.804 285.977 219.6 286.172 221.329 282.662C223.057 279.153 226.749 269.417 226.749 269.417L215.804 269.859Z" fill="#E6E7E8"/>
<path d="M217.95 285.833C217.743 285.86 217.533 285.86 217.326 285.833C216.668 285.65 216.097 285.24 215.711 284.677C215.326 284.113 215.152 283.432 215.22 282.753V269.95C215.22 269.798 215.277 269.651 215.381 269.54C215.485 269.429 215.627 269.362 215.779 269.352L226.736 268.923C226.834 268.918 226.93 268.936 227.019 268.977C227.107 269.018 227.184 269.079 227.243 269.157C227.301 269.236 227.338 269.33 227.349 269.428C227.361 269.526 227.347 269.625 227.308 269.716C227.165 270.119 223.578 279.529 221.862 283.025C221.533 283.809 220.993 284.486 220.303 284.982C219.612 285.478 218.798 285.772 217.95 285.833ZM216.403 270.456V282.688C216.403 283.74 216.832 284.429 217.599 284.611C218.366 284.793 219.899 284.234 220.796 282.428C222.187 279.594 224.943 272.51 225.879 270.08L216.403 270.456Z" fill="#231F20"/>
<path d="M301.306 294.35C306.783 294.35 311.223 289.91 311.223 284.433C311.223 278.955 306.783 274.515 301.306 274.515C295.828 274.515 291.388 278.955 291.388 284.433C291.388 289.91 295.828 294.35 301.306 294.35Z" fill="#231F20"/>
<path d="M301.305 295C299.216 294.997 297.174 294.375 295.438 293.213C293.702 292.05 292.349 290.399 291.552 288.468C290.754 286.536 290.546 284.412 290.956 282.363C291.365 280.314 292.372 278.432 293.851 276.956C295.329 275.479 297.212 274.474 299.262 274.067C301.311 273.661 303.435 273.871 305.365 274.671C307.295 275.471 308.945 276.826 310.106 278.563C311.266 280.301 311.886 282.343 311.886 284.433C311.882 287.236 310.766 289.924 308.782 291.906C306.798 293.887 304.109 295 301.305 295ZM301.305 275.165C299.473 275.168 297.682 275.713 296.16 276.733C294.638 277.753 293.452 279.201 292.753 280.895C292.053 282.589 291.871 284.452 292.23 286.249C292.59 288.045 293.473 289.696 294.77 290.99C296.066 292.285 297.718 293.166 299.515 293.523C301.312 293.88 303.175 293.695 304.868 292.993C306.561 292.292 308.007 291.104 309.025 289.58C310.043 288.056 310.586 286.265 310.586 284.433C310.582 281.973 309.603 279.616 307.863 277.879C306.123 276.141 303.764 275.165 301.305 275.165Z" fill="#231F20"/>
<path d="M299.121 269.859V282.662C299.121 285.977 302.917 286.172 304.632 282.662C306.348 279.153 310.066 269.417 310.066 269.417L299.121 269.859Z" fill="#E6E7E8"/>
<path d="M301.254 285.833C301.051 285.86 300.846 285.86 300.643 285.833C299.983 285.653 299.408 285.244 299.02 284.68C298.633 284.117 298.457 283.434 298.524 282.753V269.95C298.527 269.797 298.587 269.65 298.693 269.539C298.799 269.429 298.943 269.362 299.096 269.352L310.04 268.923C310.138 268.917 310.235 268.935 310.323 268.976C310.412 269.017 310.489 269.079 310.547 269.157C310.604 269.237 310.641 269.33 310.655 269.427C310.668 269.524 310.658 269.623 310.625 269.716C310.469 270.119 306.882 279.529 305.166 283.026C304.839 283.811 304.3 284.49 303.609 284.986C302.918 285.482 302.102 285.775 301.254 285.833ZM299.72 270.457V282.688C299.72 283.741 300.149 284.43 300.903 284.612C301.657 284.794 303.216 284.235 304.1 282.428C305.504 279.594 308.247 272.511 309.195 270.08L299.72 270.457Z" fill="#231F20"/>
<path d="M334.424 164.956L180.892 156.845C180.718 156.835 180.556 156.758 180.439 156.629C180.322 156.5 180.261 156.33 180.268 156.157C180.273 156.071 180.295 155.988 180.332 155.911C180.37 155.834 180.422 155.765 180.486 155.708C180.55 155.651 180.624 155.608 180.705 155.58C180.786 155.552 180.872 155.54 180.957 155.546L334.45 163.656C334.623 163.666 334.786 163.744 334.903 163.873C335.019 164.002 335.081 164.172 335.074 164.345C335.064 164.511 334.991 164.666 334.87 164.78C334.749 164.893 334.59 164.956 334.424 164.956Z" fill="#231F20"/>
<path d="M191.395 183.881C191.31 183.882 191.226 183.867 191.147 183.836C191.068 183.805 190.996 183.758 190.936 183.699C190.875 183.639 190.827 183.569 190.794 183.49C190.762 183.412 190.745 183.328 190.745 183.244C190.744 183.072 190.811 182.907 190.93 182.784C191.048 182.66 191.21 182.587 191.382 182.581L333.176 181.19C333.349 181.19 333.514 181.258 333.636 181.38C333.758 181.502 333.826 181.667 333.826 181.84C333.826 182.012 333.758 182.177 333.636 182.299C333.514 182.421 333.349 182.49 333.176 182.49L191.382 183.881H191.395Z" fill="#231F20"/>
<path d="M205.783 214.347C205.611 214.347 205.446 214.278 205.324 214.156C205.202 214.034 205.133 213.869 205.133 213.697C205.133 213.524 205.202 213.359 205.324 213.237C205.446 213.115 205.611 213.047 205.783 213.047L330.629 203.948C330.801 203.936 330.971 203.993 331.101 204.107C331.232 204.22 331.312 204.38 331.324 204.553C331.336 204.725 331.279 204.895 331.166 205.026C331.052 205.156 330.892 205.236 330.719 205.248L205.939 214.347H205.783Z" fill="#231F20"/>
<path d="M216.273 234.378C214.184 234.376 212.144 233.745 210.42 232.567C208.695 231.389 207.365 229.719 206.602 227.775C187.469 178.499 174.549 146.252 172.717 143.288C171.183 142.157 162.045 139.831 154.298 138.31C154.038 138.271 153.787 138.18 153.563 138.041C153.338 137.903 153.144 137.721 152.992 137.505C152.84 137.289 152.733 137.045 152.678 136.787C152.623 136.529 152.621 136.263 152.672 136.004C152.723 135.745 152.826 135.499 152.975 135.282C153.124 135.064 153.315 134.878 153.538 134.737C153.76 134.595 154.009 134.5 154.27 134.457C154.53 134.415 154.796 134.425 155.052 134.488C160.433 135.541 173.249 138.258 175.55 140.597C176.109 141.156 177.812 142.846 210.242 226.384C210.747 227.671 211.65 228.763 212.819 229.502C213.987 230.24 215.361 230.587 216.741 230.491L320.724 221.653C322.134 221.529 323.459 220.924 324.477 219.94C325.495 218.955 326.143 217.651 326.313 216.246L332.487 164.111C332.546 163.597 332.806 163.128 333.211 162.806C333.616 162.484 334.131 162.337 334.645 162.395C335.158 162.46 335.625 162.724 335.946 163.13C336.267 163.536 336.416 164.051 336.361 164.566L330.187 216.7C329.908 218.992 328.854 221.118 327.198 222.726C325.543 224.335 323.386 225.327 321.088 225.539L217.105 234.365L216.273 234.378Z" fill="#231F20"/>
<path d="M158.523 132.462L156.04 141.275L135.75 135.776C135.272 135.643 134.824 135.416 134.434 135.109C134.044 134.802 133.718 134.42 133.477 133.986C133.235 133.552 133.082 133.074 133.026 132.581C132.97 132.087 133.012 131.587 133.151 131.11C133.418 130.218 134.008 129.457 134.806 128.976C135.604 128.495 136.552 128.329 137.466 128.511L158.523 132.462Z" fill="white"/>
<path d="M156.04 141.962H155.871L135.581 136.464C135.016 136.312 134.487 136.049 134.025 135.689C133.563 135.33 133.177 134.882 132.891 134.371C132.601 133.863 132.417 133.302 132.35 132.721C132.283 132.141 132.334 131.552 132.501 130.992C132.8 129.934 133.486 129.027 134.423 128.452C135.359 127.876 136.478 127.674 137.557 127.885L158.64 131.876C158.728 131.892 158.812 131.928 158.886 131.979C158.96 132.031 159.022 132.097 159.069 132.175C159.158 132.332 159.186 132.518 159.147 132.695L156.664 141.559C156.615 141.683 156.529 141.789 156.417 141.861C156.305 141.933 156.173 141.969 156.04 141.962ZM136.725 129.068C135.975 129.078 135.254 129.357 134.693 129.855C134.132 130.353 133.77 131.037 133.672 131.78C133.574 132.524 133.747 133.278 134.16 133.904C134.573 134.53 135.197 134.987 135.919 135.19L155.585 140.519L157.704 133.006L137.31 129.107C137.117 129.075 136.921 129.062 136.725 129.068Z" fill="#231F20"/>
<path d="M226.424 231.126C226.287 231.126 226.153 231.082 226.043 231C225.933 230.918 225.852 230.803 225.813 230.671L202.118 157.636C202.065 157.472 202.078 157.294 202.156 157.14C202.234 156.987 202.37 156.87 202.534 156.817C202.615 156.789 202.701 156.777 202.786 156.783C202.872 156.788 202.955 156.811 203.032 156.85C203.108 156.889 203.176 156.943 203.231 157.009C203.286 157.074 203.328 157.151 203.353 157.233L227.048 230.268C227.101 230.432 227.087 230.61 227.009 230.764C226.931 230.917 226.796 231.033 226.632 231.087C226.566 231.113 226.495 231.126 226.424 231.126Z" fill="#231F20"/>
<path d="M236.913 230.555C236.771 230.554 236.632 230.507 236.52 230.42C236.407 230.333 236.326 230.211 236.289 230.074L216.272 158.273C216.248 158.19 216.241 158.104 216.252 158.018C216.262 157.933 216.289 157.85 216.331 157.775C216.373 157.7 216.43 157.634 216.498 157.582C216.566 157.529 216.644 157.49 216.727 157.467C216.894 157.423 217.072 157.446 217.222 157.531C217.373 157.616 217.484 157.756 217.533 157.922L237.602 229.723C237.625 229.806 237.632 229.892 237.622 229.978C237.612 230.063 237.585 230.146 237.543 230.221C237.5 230.296 237.444 230.362 237.376 230.415C237.308 230.468 237.23 230.506 237.147 230.529L236.913 230.555Z" fill="#231F20"/>
<path d="M247.052 229.671C246.906 229.672 246.763 229.624 246.648 229.534C246.532 229.445 246.45 229.319 246.415 229.177L229.037 158.988C229.014 158.906 229.007 158.82 229.019 158.735C229.03 158.651 229.058 158.57 229.102 158.497C229.146 158.423 229.204 158.36 229.274 158.311C229.343 158.261 229.421 158.226 229.505 158.208C229.588 158.186 229.674 158.181 229.758 158.193C229.843 158.205 229.925 158.234 229.998 158.277C230.072 158.321 230.136 158.378 230.188 158.447C230.239 158.515 230.276 158.593 230.298 158.676L247.676 228.865C247.697 228.947 247.702 229.032 247.69 229.116C247.678 229.2 247.649 229.28 247.606 229.353C247.562 229.426 247.505 229.489 247.436 229.539C247.368 229.589 247.29 229.625 247.208 229.645L247.052 229.671Z" fill="#231F20"/>
<path d="M256.449 228.724C256.297 228.726 256.149 228.674 256.032 228.576C255.915 228.478 255.837 228.342 255.813 228.191L242.49 159.614C242.473 159.529 242.474 159.441 242.492 159.356C242.51 159.271 242.544 159.19 242.593 159.118C242.642 159.047 242.704 158.985 242.777 158.937C242.849 158.89 242.931 158.857 243.016 158.841C243.101 158.825 243.189 158.825 243.274 158.843C243.359 158.861 243.44 158.895 243.512 158.944C243.584 158.993 243.645 159.055 243.693 159.128C243.74 159.2 243.773 159.282 243.789 159.367L257.099 227.944C257.13 228.115 257.093 228.29 256.996 228.434C256.898 228.577 256.749 228.677 256.579 228.711L256.449 228.724Z" fill="#231F20"/>
<path d="M266.692 227.596C266.538 227.595 266.39 227.539 266.273 227.439C266.157 227.339 266.079 227.201 266.055 227.05L254.655 160.435C254.64 160.351 254.642 160.264 254.661 160.18C254.68 160.097 254.715 160.018 254.765 159.947C254.814 159.877 254.877 159.818 254.95 159.772C255.023 159.726 255.104 159.696 255.188 159.682C255.273 159.665 255.36 159.665 255.445 159.683C255.529 159.701 255.609 159.736 255.68 159.786C255.75 159.836 255.81 159.9 255.855 159.973C255.9 160.047 255.93 160.129 255.942 160.214L267.328 226.829C267.355 226.999 267.314 227.173 267.215 227.314C267.115 227.455 266.965 227.551 266.795 227.583L266.692 227.596Z" fill="#231F20"/>
<path d="M277.012 226.358C276.855 226.359 276.702 226.304 276.582 226.201C276.463 226.098 276.385 225.955 276.363 225.799L267.563 160.9C267.55 160.816 267.554 160.729 267.574 160.646C267.595 160.563 267.631 160.485 267.682 160.417C267.733 160.348 267.797 160.29 267.87 160.245C267.943 160.201 268.024 160.172 268.109 160.159C268.281 160.137 268.455 160.183 268.593 160.288C268.732 160.392 268.824 160.547 268.85 160.718L277.649 225.617C277.662 225.702 277.658 225.79 277.636 225.873C277.615 225.957 277.577 226.036 277.525 226.105C277.473 226.174 277.408 226.232 277.333 226.275C277.259 226.319 277.176 226.347 277.09 226.358H277.012Z" fill="#231F20"/>
<path d="M286.968 225.1C286.806 225.095 286.652 225.032 286.532 224.922C286.413 224.812 286.337 224.663 286.319 224.502L280.677 161.566C280.67 161.481 280.679 161.395 280.705 161.313C280.73 161.231 280.772 161.155 280.826 161.089C280.881 161.024 280.949 160.969 281.025 160.929C281.101 160.89 281.184 160.865 281.269 160.858C281.354 160.85 281.44 160.859 281.522 160.885C281.604 160.91 281.68 160.952 281.746 161.007C281.811 161.062 281.866 161.129 281.905 161.205C281.945 161.281 281.97 161.364 281.977 161.449L287.618 224.385C287.633 224.557 287.58 224.728 287.471 224.861C287.362 224.995 287.205 225.08 287.033 225.1H286.968Z" fill="#231F20"/>
<path d="M297.614 223.666C297.449 223.664 297.291 223.6 297.171 223.487C297.051 223.374 296.977 223.22 296.964 223.056L292.961 162.199C292.954 162.113 292.964 162.026 292.991 161.943C293.018 161.861 293.061 161.785 293.118 161.719C293.175 161.654 293.245 161.601 293.323 161.563C293.401 161.524 293.485 161.502 293.572 161.497C293.743 161.493 293.909 161.554 294.036 161.667C294.164 161.781 294.244 161.938 294.261 162.108L298.251 222.965C298.258 223.049 298.248 223.135 298.222 223.215C298.195 223.296 298.153 223.371 298.097 223.435C298.042 223.499 297.974 223.552 297.897 223.589C297.821 223.627 297.738 223.649 297.653 223.653L297.614 223.666Z" fill="#231F20"/>
<path d="M307.74 225.099C307.57 225.099 307.406 225.032 307.285 224.913C307.163 224.794 307.093 224.632 307.09 224.462L305.621 162.839C305.619 162.753 305.634 162.668 305.665 162.589C305.697 162.509 305.743 162.437 305.802 162.375C305.861 162.314 305.932 162.264 306.01 162.23C306.088 162.196 306.173 162.177 306.258 162.176C306.429 162.176 306.594 162.242 306.718 162.361C306.841 162.479 306.914 162.641 306.921 162.813L308.39 224.436C308.387 224.606 308.319 224.769 308.201 224.892C308.083 225.015 307.923 225.089 307.753 225.099H307.74Z" fill="#231F20"/>
<path d="M318.878 223.307C318.706 223.307 318.541 223.238 318.419 223.116C318.297 222.995 318.228 222.829 318.228 222.657V163.49C318.228 163.318 318.297 163.153 318.419 163.031C318.541 162.909 318.706 162.84 318.878 162.84C319.051 162.84 319.216 162.909 319.338 163.031C319.46 163.153 319.528 163.318 319.528 163.49V222.657C319.528 222.829 319.46 222.995 319.338 223.116C319.216 223.238 319.051 223.307 318.878 223.307Z" fill="#231F20"/>
<path d="M313.836 272.32H207.252C206.34 272.322 205.443 272.091 204.645 271.649C203.847 271.206 203.175 270.568 202.694 269.793C202.212 269.018 201.936 268.133 201.892 267.222C201.848 266.311 202.038 265.404 202.443 264.586L218.47 232.183C218.583 231.953 218.741 231.748 218.934 231.579C219.126 231.411 219.35 231.282 219.593 231.2C219.836 231.117 220.092 231.084 220.348 231.101C220.603 231.118 220.853 231.185 221.082 231.299C221.312 231.412 221.517 231.57 221.686 231.763C221.854 231.955 221.983 232.179 222.065 232.422C222.147 232.665 222.181 232.921 222.164 233.176C222.147 233.432 222.08 233.682 221.966 233.911L205.953 266.341C205.842 266.563 205.79 266.809 205.801 267.057C205.812 267.304 205.886 267.545 206.017 267.756C206.147 267.967 206.329 268.141 206.545 268.262C206.761 268.383 207.005 268.446 207.252 268.447H313.836C314.353 268.447 314.849 268.652 315.214 269.018C315.58 269.384 315.785 269.879 315.785 270.397C315.785 270.914 315.58 271.41 315.214 271.775C314.849 272.141 314.353 272.346 313.836 272.346V272.32Z" fill="#231F20"/>
<path d="M81.8614 43.2408C80.9697 43.6292 79.9621 43.6566 79.0506 43.3172C78.1391 42.9778 77.3947 42.2981 76.9742 41.4211C76.7306 41.0863 76.5704 40.6981 76.5071 40.2889C76.4438 39.8797 76.4792 39.4613 76.6103 39.0685C76.6818 38.8777 76.7937 38.7046 76.9382 38.561C77.0828 38.4174 77.2566 38.3066 77.4478 38.2363C77.639 38.166 77.8432 38.1377 78.0463 38.1535C78.2495 38.1692 78.4468 38.2286 78.6249 38.3276C76.771 36.075 75.268 33.5553 74.1666 30.8538C73.6285 29.4952 73.3973 28.0346 73.4894 26.5763C73.5815 25.118 73.9948 23.6981 74.6996 22.4181C72.5809 21.3003 70.3193 20.0395 69.2664 17.8818C68.7058 16.5332 68.5901 15.0408 68.9361 13.6219C69.282 12.2029 70.0717 10.9313 71.1901 9.99205C72.3377 9.08875 73.6677 8.44544 75.0883 8.10657C76.5089 7.7677 77.9861 7.74135 79.4178 8.02936C79.2136 7.33453 78.8664 6.69004 78.3986 6.13718C77.9308 5.58432 77.3527 5.13529 76.7012 4.81887C79.8857 1.77735 84.5 0.789503 88.9063 0.620529C96.2112 0.347572 103.88 2.21928 109.183 7.23649C111.209 9.14833 112.76 11.5073 113.713 14.1252C114.665 16.7431 114.992 19.5473 114.668 22.3141C113.589 29.6709 108.338 26.3175 103.373 29.073C100.916 30.3728 99.2397 32.8944 97.134 34.7012C93.5856 37.7427 89.0233 38.6005 85.4359 41.2001C84.3429 42.04 83.1403 42.7266 81.8614 43.2408Z" fill="black"/>
<path d="M80.2365 44.1919C79.4398 44.1678 78.6644 43.9293 77.9919 43.5015C77.3194 43.0738 76.7747 42.4726 76.4151 41.7613C76.1223 41.3376 75.9323 40.8515 75.8601 40.3416C75.7879 39.8317 75.8355 39.312 75.9992 38.8237C76.1231 38.545 76.3021 38.2942 76.5255 38.0865C76.7489 37.8788 77.012 37.7183 77.299 37.6149C75.7481 35.6401 74.4916 33.4511 73.5685 31.116C73.0404 29.7741 72.791 28.3387 72.8357 26.8974C72.8804 25.456 73.2182 24.0388 73.8285 22.7323C71.6703 21.8034 69.8536 20.2275 68.6293 18.222C68.0084 16.7426 67.8766 15.1034 68.2531 13.5438C68.6295 11.9842 69.4946 10.5856 70.722 9.55236C72.8634 7.82458 75.6023 7.01599 78.3388 7.30371C77.8853 6.50493 77.2012 5.86163 76.3761 5.45801C76.2817 5.41234 76.1995 5.34493 76.1363 5.26133C76.073 5.17773 76.0305 5.08031 76.0121 4.97708C75.9948 4.87306 76.0035 4.76636 76.0375 4.66653C76.0715 4.56671 76.1298 4.4769 76.2071 4.40517C79.0277 1.7016 83.278 0.232831 88.8281 0.0248637C97.2638 -0.274089 104.634 2.13053 109.625 6.82279C111.717 8.80343 113.32 11.244 114.306 13.9512C115.292 16.6584 115.634 19.558 115.305 22.4203C114.538 27.6195 111.679 27.9964 108.637 28.3604C106.916 28.4579 105.232 28.8999 103.685 29.6602C102.223 30.5743 100.908 31.705 99.7854 33.0137C99.0749 33.7848 98.3243 34.518 97.5367 35.2103C95.5165 36.8016 93.2745 38.089 90.8818 39.0317C89.1234 39.7615 87.439 40.6581 85.8516 41.7093C84.6939 42.6029 83.4162 43.3292 82.0562 43.8669C81.4715 44.0741 80.8567 44.1839 80.2365 44.1919ZM77.9618 38.7847C77.9019 38.7713 77.8398 38.7713 77.7799 38.7847C77.6487 38.8193 77.527 38.8828 77.4235 38.9705C77.3201 39.0582 77.2375 39.1679 77.182 39.2917C77.0967 39.5907 77.0805 39.9052 77.1346 40.2114C77.1886 40.5176 77.3115 40.8076 77.4939 41.0594C77.8367 41.8095 78.4627 42.3934 79.2348 42.6832C80.007 42.9731 80.8625 42.9454 81.6143 42.6062C82.8528 42.1056 84.0163 41.4364 85.0717 40.6175C86.7102 39.5162 88.4514 38.576 90.2709 37.8099C92.5727 36.9236 94.7352 35.7111 96.6919 34.2095C97.4462 33.5445 98.1664 32.8417 98.8496 32.1038C100.059 30.6865 101.48 29.4634 103.061 28.4774C104.75 27.6282 106.594 27.1328 108.481 27.0216C111.445 26.6707 113.394 26.4367 114.018 22.1864C114.327 19.5235 114.01 16.8254 113.091 14.3069C112.173 11.7885 110.679 9.51944 108.728 7.68065C102.411 1.6886 93.6114 1.0777 88.9321 1.18168C84.2529 1.28566 80.3795 2.48148 77.8059 4.62614C78.8824 5.38897 79.6701 6.49264 80.0415 7.75864C80.0738 7.86403 80.0775 7.97607 80.0524 8.08337C80.0273 8.19068 79.9742 8.28942 79.8985 8.36954C79.8277 8.45224 79.7364 8.51496 79.6338 8.55144C79.5312 8.58793 79.4208 8.59691 79.3136 8.57751C77.9757 8.3062 76.5949 8.32839 75.2665 8.64256C73.938 8.95673 72.6935 9.55539 71.6188 10.3972C70.6037 11.2383 69.8845 12.3823 69.5664 13.6616C69.2483 14.941 69.3481 16.2885 69.8511 17.5071C70.774 19.4048 72.7367 20.5486 75.0503 21.7574C75.1283 21.8 75.1971 21.8574 75.2529 21.9266C75.3086 21.9957 75.3502 22.0751 75.3753 22.1604C75.4149 22.3373 75.3871 22.5228 75.2973 22.6803C74.6515 23.8659 74.2738 25.1788 74.1907 26.5263C74.1076 27.8738 74.3212 29.2231 74.8163 30.4791C75.9046 33.1157 77.3762 35.5772 79.1837 37.7839C79.2775 37.9091 79.3231 38.0639 79.312 38.2199C79.3009 38.376 79.2339 38.5228 79.1233 38.6334C79.0127 38.744 78.8659 38.811 78.7098 38.8221C78.5538 38.8332 78.399 38.7876 78.2738 38.6938C78.1705 38.6875 78.0685 38.7199 77.9878 38.7847H77.9618Z" fill="#231F20"/>
<path d="M107.896 30.0747C107.896 30.0747 111.392 37.8735 110.197 39.1733C109.001 40.4731 105.946 38.9783 105.946 38.9783" fill="#8B5E38"/>
<path d="M108.715 40.3721C107.653 40.3187 106.614 40.0489 105.661 39.5792C105.584 39.5416 105.515 39.4893 105.458 39.4252C105.402 39.3611 105.358 39.2865 105.331 39.2057C105.303 39.1248 105.291 39.0393 105.297 38.9539C105.302 38.8686 105.324 38.7851 105.362 38.7083C105.399 38.6315 105.451 38.5629 105.516 38.5063C105.58 38.4497 105.654 38.4063 105.735 38.3785C105.816 38.3507 105.901 38.3392 105.987 38.3445C106.072 38.3498 106.156 38.3718 106.232 38.4094C107.077 38.8383 109.053 39.4622 109.716 38.7473C110.171 38.1624 109.053 34.237 107.311 30.3376C107.27 30.2592 107.245 30.173 107.238 30.0846C107.231 29.9961 107.243 29.9072 107.272 29.8233C107.3 29.7394 107.346 29.6623 107.406 29.5967C107.466 29.5312 107.538 29.4786 107.619 29.4421C107.7 29.4057 107.788 29.3862 107.876 29.3848C107.965 29.3835 108.053 29.4003 108.135 29.4343C108.217 29.4683 108.291 29.5187 108.353 29.5824C108.415 29.6461 108.463 29.7217 108.494 29.8047C109.599 32.2743 112.017 38.1754 110.665 39.6312C110.411 39.8866 110.106 40.0849 109.77 40.2127C109.434 40.3404 109.074 40.3948 108.715 40.3721Z" fill="#231F20"/>
<path d="M108.39 20.6011C110.99 23.5126 109.248 28.4778 108.676 31.8053C107.87 36.4846 106.956 41.1378 105.933 45.7651C105.283 48.7026 97.5886 47.5068 96.3798 46.389L95.47 56.3194C95.47 56.3194 92.7794 61.4406 87.0473 57.6192C81.3152 53.7978 80.5483 49.5215 80.5483 49.5215L83.2909 36.0686C83.2909 36.0686 88.3601 36.9525 92.3895 31.4024C96.4188 25.8522 97.8096 16.5327 97.8096 16.5327C97.8096 16.5327 105.946 17.7545 108.39 20.6011Z" fill="#8B5E38"/>
<path d="M91.1411 59.6727C89.5483 59.5996 88.0138 59.0519 86.7348 58.1C80.8597 54.0966 79.9759 49.7683 79.9369 49.5863C79.9175 49.5051 79.9175 49.4205 79.9369 49.3394L82.6794 35.8865C82.711 35.7213 82.8066 35.5753 82.9454 35.4803C83.0842 35.3853 83.2549 35.3491 83.4203 35.3796C83.6153 35.3796 88.1646 36.0944 91.856 30.9602C95.7554 25.6051 97.1332 16.4805 97.1462 16.3895C97.1589 16.3044 97.1885 16.2226 97.2331 16.149C97.2777 16.0754 97.3365 16.0113 97.4061 15.9606C97.4744 15.91 97.5522 15.8736 97.6348 15.8535C97.7173 15.8334 97.8031 15.83 97.887 15.8436C98.238 15.8436 106.284 17.1434 108.922 20.1849C111.262 22.7845 110.404 26.8919 109.715 30.1414C109.585 30.7783 109.455 31.3762 109.351 31.9351C108.545 36.5884 107.623 41.2936 106.609 45.9209C106.481 46.4261 106.215 46.8858 105.841 47.2485C105.467 47.6112 104.999 47.8626 104.49 47.9746C101.999 48.5282 99.4025 48.3613 97.0032 47.4936L96.1843 56.4362C96.1723 56.5223 96.1459 56.6058 96.1063 56.6832C95.3078 58.0864 93.9924 59.122 92.4409 59.5687C92.0136 59.6569 91.577 59.6918 91.1411 59.6727ZM81.2497 49.4563C81.4186 50.1192 82.5494 53.6937 87.4627 57.0211C88.099 57.5557 88.8421 57.9482 89.6424 58.1723C90.4426 58.3965 91.2815 58.4471 92.1029 58.3209C93.2658 57.9867 94.2594 57.2252 94.8845 56.1893L95.7814 46.4148C95.7947 46.2948 95.8405 46.1807 95.9139 46.0849C95.9873 45.989 96.0855 45.915 96.1978 45.8709C96.3102 45.8267 96.4325 45.8141 96.5515 45.8344C96.6705 45.8546 96.7818 45.907 96.8732 45.9859C99.1314 47.0156 101.663 47.2847 104.087 46.7528C104.828 46.5188 105.244 46.1678 105.387 45.6999C106.401 41.0986 107.324 36.4194 108.129 31.7661C108.22 31.2072 108.363 30.5833 108.493 29.9334C109.13 26.9699 109.91 23.2785 107.999 21.1078C106.089 18.9371 100.305 17.6633 98.381 17.2994C97.978 19.561 96.4313 26.9699 92.9608 31.7921C89.4904 36.6144 85.448 36.8353 83.8623 36.7833L81.2497 49.4563Z" fill="#231F20"/>
<path d="M106.44 42.2524C106.44 42.2524 102.45 43.8901 101.137 39.8218L106.44 42.2524Z" fill="white"/>
<path d="M104.659 43.2315C104.022 43.2428 103.391 43.1095 102.814 42.8416C102.252 42.5618 101.756 42.1655 101.359 41.6792C100.963 41.1928 100.674 40.6276 100.513 40.021C100.459 39.8487 100.477 39.6621 100.561 39.5025C100.645 39.3428 100.789 39.2231 100.961 39.1697C101.134 39.1162 101.32 39.1335 101.48 39.2176C101.64 39.3017 101.759 39.4457 101.813 39.6181C101.918 40.0508 102.114 40.4564 102.387 40.808C102.661 41.1597 103.005 41.4497 103.398 41.6588C104.321 42.0013 105.336 42.0013 106.258 41.6588C106.337 41.6272 106.422 41.6116 106.508 41.6128C106.593 41.614 106.677 41.632 106.756 41.6658C106.834 41.6996 106.905 41.7485 106.965 41.8097C107.024 41.871 107.071 41.9433 107.103 42.0227C107.134 42.1021 107.15 42.1869 107.149 42.2723C107.148 42.3577 107.13 42.4421 107.096 42.5205C107.062 42.599 107.013 42.67 106.952 42.7296C106.891 42.7891 106.818 42.836 106.739 42.8676C106.072 43.1077 105.368 43.2308 104.659 43.2315Z" fill="#231F20"/>
<path d="M96.6918 30.5687C96.7607 29.3742 96.4903 28.1846 95.9119 27.1372C95.5999 26.2759 95.1618 25.4655 94.6121 24.7326C94.3251 24.3716 93.9619 24.0783 93.5485 23.8739C93.1351 23.6694 92.6816 23.5587 92.2205 23.5498C91.8115 23.5837 91.4145 23.7044 91.0558 23.9038C90.6972 24.1033 90.3853 24.377 90.1408 24.7066C89.6528 25.3647 89.3196 26.1245 89.166 26.9293C88.8034 28.6778 88.9054 30.4908 89.4619 32.1875C90.0183 33.8843 91.0098 35.4056 92.3375 36.5997L92.1165 36.2748" fill="#8B5E38"/>
<path d="M92.2593 37.2496C92.1801 37.2513 92.1015 37.2372 92.0279 37.2082C91.9542 37.1792 91.8871 37.1358 91.8303 37.0807C90.418 35.809 89.3638 34.1892 88.7731 32.3828C88.1824 30.5764 88.0757 28.6467 88.4639 26.7863C88.6277 25.8805 89.0017 25.0258 89.5557 24.2907C89.8609 23.8829 90.2519 23.547 90.7011 23.3067C91.1502 23.0664 91.6466 22.9276 92.1553 22.8999C92.7162 22.9002 93.2697 23.0279 93.774 23.2733C94.2784 23.5188 94.7204 23.8755 95.0668 24.3167C95.6732 25.1074 96.1594 25.9834 96.5096 26.9163C97.1381 28.0734 97.4265 29.3846 97.3415 30.6987C97.3304 30.784 97.3023 30.8661 97.2587 30.9402C97.215 31.0143 97.1568 31.0788 97.0876 31.1299C97.0184 31.1809 96.9395 31.2173 96.8558 31.2371C96.7721 31.2568 96.6853 31.2593 96.6006 31.2446C96.4324 31.2188 96.2811 31.1282 96.179 30.9921C96.0769 30.856 96.0323 30.6853 96.0547 30.5167C96.0894 29.4435 95.8382 28.3804 95.3268 27.4362C95.0074 26.6304 94.5692 25.8768 94.027 25.2005C93.8033 24.9142 93.52 24.6799 93.1969 24.5139C92.8737 24.3478 92.5183 24.2539 92.1553 24.2387C91.8397 24.2691 91.5341 24.3659 91.2586 24.5227C90.9831 24.6795 90.7438 24.8928 90.5565 25.1485C90.1321 25.7316 89.8434 26.4022 89.7117 27.1112C89.3948 28.6322 89.4541 30.2075 89.8845 31.7002C90.3149 33.193 91.1033 34.5581 92.1813 35.6769C92.2623 35.6955 92.3387 35.7305 92.4057 35.7796C92.4728 35.8288 92.5291 35.8911 92.5712 35.9628L92.7922 36.2748C92.8727 36.4076 92.9051 36.5641 92.8838 36.718C92.8625 36.8719 92.7888 37.0137 92.6752 37.1197C92.5567 37.2116 92.409 37.2577 92.2593 37.2496Z" fill="#231F20"/>
<path d="M96.4316 46.3886C94.2614 45.28 92.4564 43.5698 91.2325 41.4624C91.2325 41.4624 90.3226 48.6243 96.0937 51.7048L96.4316 46.3886Z" fill="#231F20"/>
<path d="M96.1062 52.3561C95.9976 52.355 95.8907 52.3283 95.7943 52.2781C89.7112 49.0286 90.5951 41.4508 90.5951 41.3858C90.6126 41.2445 90.6751 41.1125 90.7735 41.0095C90.8718 40.9065 91.0007 40.8379 91.141 40.8139C91.2808 40.7971 91.4223 40.8245 91.5458 40.892C91.6693 40.9596 91.7686 41.0641 91.8299 41.1908C92.983 43.1564 94.6682 44.756 96.6911 45.8051C96.8056 45.8628 96.901 45.9524 96.9656 46.0631C97.0302 46.1739 97.0612 46.3009 97.0551 46.429L96.7301 51.7452C96.7228 51.8534 96.6879 51.958 96.6287 52.049C96.5696 52.14 96.4882 52.2144 96.3922 52.2651C96.3073 52.3215 96.2082 52.353 96.1062 52.3561ZM91.8819 43.6214C91.9356 44.9777 92.29 46.3052 92.9194 47.5078C93.5488 48.7104 94.4375 49.7581 95.5213 50.5753L95.7553 46.7539C94.2986 45.933 92.9894 44.8742 91.8819 43.6214Z" fill="#231F20"/>
<path d="M106.398 26.5999C106.701 25.7175 106.666 24.9056 106.32 24.7865C105.974 24.6674 105.447 25.2863 105.144 26.1687C104.84 27.0512 104.875 27.8631 105.221 27.9822C105.567 28.1013 106.094 27.4824 106.398 26.5999Z" fill="#231F20"/>
<path d="M72.5281 48.8594C72.5281 48.8594 92.7919 52.2649 96.6913 63.963C100.591 75.6612 94.0917 113.355 96.6913 116.852C99.2909 120.348 105.79 143.121 105.79 143.835C105.79 150.165 51.1985 152.206 51.1985 152.206C51.1985 152.206 49.8207 124.715 49.3788 108.013C48.9368 91.3107 57.6974 45.012 72.5281 48.8594Z" fill="#566246"/>
<path d="M102.957 132.463C102.888 132.476 102.818 132.476 102.749 132.463C102.621 132.42 102.509 132.338 102.43 132.228C102.351 132.119 102.308 131.987 102.307 131.852C102.177 131.241 100.721 127.81 99.4473 124.768C97.6146 120.44 95.7169 115.956 95.418 114.617C95.119 113.278 95.6779 102.698 96.5098 89.258C96.8737 83.3699 97.1857 78.2877 97.2377 76.364C97.1788 72.2548 96.7656 68.1582 96.0029 64.12C95.9701 63.9476 96.0072 63.7693 96.1059 63.6243C96.2046 63.4792 96.3569 63.3793 96.5293 63.3466C96.7017 63.3138 96.88 63.3509 97.025 63.4496C97.17 63.5484 97.2699 63.7007 97.3027 63.873C98.1092 67.9981 98.5442 72.1872 98.6025 76.39C98.6025 78.3397 98.2385 83.4349 97.8746 89.388C97.2507 99.3184 96.4058 112.914 96.7437 114.383C97.0297 115.605 98.9794 120.232 100.643 124.313C103.737 131.657 103.711 131.735 103.581 132.112C103.52 132.223 103.429 132.315 103.319 132.377C103.209 132.439 103.083 132.469 102.957 132.463Z" fill="#231F20"/>
<path d="M70.2016 39.5385C68.5925 38.4721 66.7841 37.7425 64.8854 37.3938C60.4554 36.9123 56.0121 38.1758 52.4984 40.9163C47.4162 44.4517 42.009 48.6371 40.7092 54.6941C40.1809 57.5727 40.6325 60.5453 41.992 63.1371C43.3515 65.7289 45.5404 67.7902 48.209 68.9918C49.1559 69.4561 50.2154 69.6409 51.2636 69.5248C53.2522 69.2128 54.578 67.4061 55.9428 65.9243C59.4913 62.0249 62.7147 61.3361 67.641 60.8291C70.6938 60.4588 73.7688 60.3024 76.8435 60.3612C83.1475 60.5952 89.2826 62.4149 95.5216 63.3767C99.421 63.9746 97.7832 59.8933 96.2105 58.4245C93.6109 55.9939 90.8943 53.6933 88.0997 51.4966C82.4167 47.1024 76.4364 43.1068 70.2016 39.5385Z" fill="#566246"/>
<path d="M151.114 141.556C151.036 141.907 150.672 142.076 150.347 142.219C146.448 143.805 141.99 144.546 138.012 143.142C133.333 141.491 130.85 137.306 126.158 135.863C124.455 135.343 122.766 134.862 121.063 134.394C118.619 133.719 116.163 133.095 113.706 132.432C106.765 130.599 98.2515 129.481 91.9345 125.933C86.7353 122.956 72.0087 97.3373 67.9273 86.562C63.8459 75.7867 76.467 69.4827 76.467 69.4827C83.2649 63.7895 101.163 110.855 101.163 110.855L126.873 122.956L132.202 125.452C133.268 126.059 134.392 126.559 135.556 126.947C138.246 127.609 141.587 126.362 144.199 125.803C144.562 125.698 144.941 125.662 145.317 125.699C145.582 125.743 145.84 125.822 146.084 125.933C147.19 126.355 148.235 126.924 149.19 127.622C149.665 127.975 150.064 128.419 150.366 128.928C150.667 129.437 150.864 130 150.945 130.586L147.28 130.495C144.459 130.417 143.289 133.862 144.68 136.123C146.071 138.385 149.58 138.645 150.932 140.945C151.052 141.127 151.115 141.339 151.114 141.556Z" fill="#8B5E38"/>
<path d="M142.561 144.487C140.939 144.498 139.326 144.235 137.791 143.707C135.599 142.821 133.577 141.563 131.812 139.99C130.113 138.433 128.126 137.224 125.963 136.428C124.273 135.921 122.597 135.441 120.894 134.973C118.619 134.349 116.319 133.751 114.031 133.14L113.537 133.023C111.704 132.529 109.794 132.1 107.766 131.645C102.151 130.345 96.3277 129.046 91.6095 126.446C86.2933 123.365 71.4497 97.5905 67.3163 86.6982C63.183 75.806 75.1151 69.385 76.1159 68.8391C76.4434 68.5715 76.8312 68.3878 77.2457 68.304C77.6602 68.2202 78.0888 68.2388 78.4945 68.3581C81.887 69.242 86.8522 76.6378 93.2472 90.3507C97.5495 99.5662 101.046 108.691 101.722 110.29L127.185 122.261L132.514 124.769L133.385 125.198C134.131 125.627 134.925 125.967 135.751 126.212C137.687 126.693 140.118 126.069 142.249 125.523C142.886 125.354 143.549 125.198 144.082 125.068C144.526 124.947 144.989 124.907 145.447 124.951C145.76 125.011 146.066 125.107 146.357 125.237C147.523 125.673 148.622 126.272 149.619 127.018C150.166 127.423 150.626 127.935 150.97 128.522C151.314 129.11 151.535 129.761 151.621 130.436C151.632 130.528 151.623 130.621 151.594 130.709C151.564 130.796 151.516 130.877 151.452 130.943C151.388 131.009 151.311 131.06 151.226 131.093C151.141 131.127 151.05 131.142 150.958 131.138L147.293 131.047C146.867 131.025 146.445 131.124 146.074 131.333C145.703 131.543 145.4 131.854 145.2 132.23C144.897 132.756 144.737 133.352 144.737 133.959C144.737 134.566 144.897 135.162 145.2 135.688C145.938 136.655 146.927 137.401 148.06 137.845C149.427 138.388 150.606 139.319 151.452 140.523C151.659 140.847 151.746 141.233 151.699 141.615C151.616 141.879 151.469 142.119 151.272 142.314C151.075 142.508 150.833 142.652 150.568 142.732C148.035 143.82 145.317 144.415 142.561 144.487ZM77.7407 69.5539C77.4292 69.5575 77.1294 69.6728 76.8958 69.8789L76.7658 69.9699C76.2719 70.2168 64.7037 76.1439 68.5381 86.2433C72.5155 96.7197 87.2552 122.404 92.2594 125.237C96.8086 127.837 102.528 129.137 108.052 130.358C110.093 130.813 111.951 131.242 113.875 131.736L114.356 131.866C116.657 132.464 118.957 133.062 121.245 133.699C122.948 134.167 124.65 134.648 126.34 135.168C128.664 136.004 130.802 137.289 132.631 138.95C134.291 140.451 136.206 141.644 138.285 142.472C142.548 143.993 147.098 142.823 150.152 141.576C150.284 141.526 150.407 141.456 150.516 141.368C150.486 141.292 150.451 141.218 150.412 141.147C149.673 140.158 148.668 139.401 147.514 138.963C146.168 138.427 144.997 137.527 144.134 136.363C143.719 135.635 143.501 134.81 143.501 133.972C143.501 133.133 143.719 132.309 144.134 131.58C144.453 131.001 144.928 130.523 145.504 130.199C146.081 129.875 146.736 129.719 147.397 129.747L150.217 129.825C149.954 129.121 149.505 128.501 148.917 128.032C148.015 127.361 147.022 126.822 145.967 126.433C145.775 126.347 145.575 126.281 145.369 126.238C145.066 126.218 144.762 126.253 144.472 126.342C143.913 126.459 143.315 126.615 142.691 126.771C140.404 127.369 137.804 128.071 135.543 127.486C134.639 127.199 133.768 126.82 132.943 126.355L132.111 125.939L126.587 123.443L100.877 111.355C100.724 111.278 100.605 111.149 100.539 110.991C96.3667 100.021 84.1876 71.1917 78.1046 69.6189C77.9862 69.5835 77.864 69.5617 77.7407 69.5539Z" fill="#231F20"/>
<path d="M126.912 122.855L121.062 134.345C118.619 133.67 116.162 133.046 113.706 132.383C106.765 130.55 98.2511 129.432 91.9341 125.884C86.7349 122.907 73.477 106.387 67.108 93.1029C59.3092 76.6995 77.5063 65.6123 77.5063 65.6123C84.3043 59.9062 101.215 110.806 101.215 110.806L126.912 122.855Z" fill="#231F20"/>
<path d="M121.063 135.061H120.894C118.619 134.437 116.319 133.761 114.031 133.228L113.55 133.098C111.704 132.617 109.794 132.188 107.766 131.798C102.151 130.499 96.3278 129.199 91.6095 126.599C86.1504 123.48 72.7495 106.569 66.5235 93.5324C63.222 86.6045 64.0149 79.4946 68.8501 72.9826C71.1378 69.9142 73.9495 67.274 77.1558 65.1839C77.464 64.9333 77.8295 64.7629 78.2196 64.6881C78.6098 64.6132 79.0124 64.6362 79.3914 64.7549C80.6912 65.1059 84.4216 66.1847 93.6892 88.7232C97.8095 98.7836 101.202 108.74 101.787 110.482L127.237 122.44C127.393 122.518 127.514 122.653 127.575 122.817C127.61 122.897 127.629 122.983 127.629 123.07C127.629 123.158 127.61 123.244 127.575 123.324L121.726 134.814C121.65 134.913 121.547 134.989 121.43 135.033C121.313 135.077 121.185 135.086 121.063 135.061ZM78.6506 65.7558C78.3752 65.7608 78.1114 65.8672 77.9097 66.0547C74.813 68.0742 72.0906 70.6163 69.8639 73.5675C65.2887 79.7546 64.5608 86.2145 67.6933 92.7655C74.2832 106.556 87.4632 122.531 92.2594 125.26C96.8087 127.86 102.528 129.16 108.052 130.382C110.093 130.837 111.951 131.265 113.875 131.759L114.356 131.889C116.488 132.448 118.619 133.007 120.725 133.579L126.041 123.181L100.929 111.379C100.849 111.339 100.779 111.285 100.721 111.218C100.663 111.151 100.618 111.073 100.591 110.989C96.6007 99.0045 84.9935 67.5235 79.0405 65.8468C78.9151 65.7994 78.784 65.7688 78.6506 65.7558Z" fill="#231F20"/>
<path d="M79.7031 189.056C79.6127 189.057 79.5231 189.039 79.4402 189.003C79.3573 188.968 79.283 188.914 79.2221 188.848C73.0091 182.063 58.6464 158.77 58.0485 157.783C58.0013 157.711 57.9692 157.63 57.9542 157.545C57.9391 157.46 57.9414 157.374 57.9608 157.29C57.9802 157.206 58.0164 157.127 58.0673 157.057C58.1181 156.988 58.1824 156.93 58.2564 156.886C58.4018 156.798 58.5756 156.771 58.7407 156.81C58.9059 156.849 59.0493 156.951 59.1403 157.094C59.2963 157.341 74.049 181.283 80.184 187.977C80.2661 188.07 80.3196 188.185 80.3383 188.308C80.357 188.431 80.34 188.557 80.2894 188.67C80.2387 188.784 80.1566 188.881 80.0527 188.949C79.9487 189.017 79.8274 189.054 79.7031 189.056Z" fill="white"/>
<path d="M58.5944 64.2468C58.4526 64.2453 58.3151 64.1975 58.203 64.1106C58.0909 64.0238 58.0103 63.9026 57.9735 63.7656C57.9366 63.6286 57.9456 63.4834 57.9991 63.352C58.0525 63.2206 58.1475 63.1103 58.2695 63.038C58.9974 62.609 76.3626 52.6396 87.3459 56.9419C87.5041 57.0083 87.6304 57.1334 87.6983 57.2909C87.7661 57.4485 87.7703 57.6262 87.7098 57.7868C87.6783 57.8662 87.6315 57.9386 87.5719 57.9999C87.5124 58.0612 87.4413 58.1102 87.3629 58.144C87.2844 58.1778 87.2 58.1958 87.1146 58.1969C87.0292 58.1981 86.9443 58.1824 86.865 58.1507C76.4666 54.0564 59.0884 64.0518 58.9194 64.1558C58.8224 64.2174 58.7093 64.249 58.5944 64.2468Z" fill="#231F20"/>
</svg>
