<svg width="387" height="281" viewBox="0 0 387 281" fill="none" xmlns="http://www.w3.org/2000/svg">
<path fill-rule="evenodd" clip-rule="evenodd" d="M204 91.5008C236 84.9704 283.293 80.5265 296.32 85.691C331.808 109.148 368.126 148.53 361.127 190.982C354.255 232.666 320.32 251.821 296.32 262.5C272.555 278.111 189.77 278.881 161.5 279.999C138.293 280.917 123.795 281.155 113.024 272.109C87.5987 250.755 58.7571 224.431 61.1382 190.982C63.4702 158.221 98.955 141.801 123.795 120.808C145.105 102.798 180.5 96.2965 204 91.5008Z" fill="#E1E3DE"/>
<g clip-path="url(#clip0_3_8406)">
<path d="M201.652 278.386H186.798V164.066H198.878C199.463 164.066 200.025 164.298 200.439 164.711C200.854 165.123 201.089 165.684 201.092 166.269L201.652 278.386Z" fill="#CCCCCC"/>
<path d="M188.187 278.989H28.6772V197.574H188.187V278.989Z" fill="white"/>
<path d="M125.316 278.685H28.98V197.875H187.884V216.117C187.865 232.705 181.267 248.608 169.538 260.338C157.808 272.068 141.904 278.666 125.316 278.685Z" fill="#F2F2F2"/>
<path d="M199.233 167.314C199.153 167.465 199.091 167.626 199.048 167.792L193.547 188.993L187.581 200.292H29.2827V197.478L38.2951 188.993L48.8086 168.883C49.2727 167.995 49.8822 167.191 50.6118 166.505C52.2764 164.939 54.476 164.066 56.7618 164.066H197.276C197.657 164.066 198.032 164.165 198.365 164.353C198.697 164.54 198.975 164.811 199.172 165.137C199.369 165.464 199.478 165.836 199.488 166.217C199.499 166.599 199.411 166.976 199.233 167.314Z" fill="#F2F2F2"/>
<path d="M188.187 278.989H28.6772V197.574H188.187V278.989ZM29.8881 277.778H186.976V198.785H29.8881V277.778Z" fill="#E6E6E6"/>
<path d="M196.486 178.156L193.547 188.99H38.2954L43.312 179.973L196.486 178.156Z" fill="#CCCCCC"/>
<path d="M59.9865 240.234H34.5591V241.641H59.9865V240.234Z" fill="white"/>
<path d="M59.9865 245.16H34.5591V246.567H59.9865V245.16Z" fill="white"/>
<path d="M59.9865 250.086H34.5591V251.493H59.9865V250.086Z" fill="white"/>
<path d="M44.4088 224.562C49.4601 224.562 53.555 220.467 53.555 215.416C53.555 210.364 49.4601 206.27 44.4088 206.27C39.3576 206.27 35.2627 210.364 35.2627 215.416C35.2627 220.467 39.3576 224.562 44.4088 224.562Z" fill="white"/>
<path d="M144.652 182.846H136.885V123.063H143.202C143.508 123.062 143.802 123.184 144.018 123.399C144.235 123.615 144.358 123.908 144.36 124.214L144.652 182.846Z" fill="#CCCCCC"/>
<path d="M137.61 183.162H54.1943V140.586H137.61V183.162Z" fill="white"/>
<path d="M104.732 183.006H54.3525V140.746H137.452V150.286C137.442 158.96 133.992 167.277 127.858 173.411C121.724 179.545 113.407 182.996 104.732 183.006Z" fill="#F2F2F2"/>
<path d="M143.387 124.761C143.345 124.84 143.313 124.924 143.29 125.011L140.414 136.098L137.294 142.007H54.5112V140.535L59.2243 136.098L64.7224 125.581C64.9651 125.117 65.2838 124.697 65.6653 124.338C66.5359 123.519 67.6862 123.063 68.8815 123.062H142.364C142.563 123.063 142.759 123.114 142.933 123.212C143.107 123.31 143.252 123.452 143.355 123.623C143.458 123.793 143.515 123.988 143.521 124.187C143.526 124.387 143.48 124.584 143.387 124.761Z" fill="#F2F2F2"/>
<path d="M126.611 183.164H43.1946V140.587H126.611V183.164ZM43.8278 182.53H125.977V141.221H43.8278V182.53Z" fill="#E6E6E6"/>
<path d="M141.95 130.434L140.413 136.099H59.2241L61.8474 131.383L141.95 130.434Z" fill="#CCCCCC"/>
<path d="M59.5678 162.896H46.2705V163.632H59.5678V162.896Z" fill="white"/>
<path d="M59.5678 165.472H46.2705V166.208H59.5678V165.472Z" fill="white"/>
<path d="M59.5678 168.047H46.2705V168.783H59.5678V168.047Z" fill="white"/>
<path d="M51.4214 154.701C54.063 154.701 56.2044 152.56 56.2044 149.918C56.2044 147.277 54.063 145.135 51.4214 145.135C48.7798 145.135 46.6384 147.277 46.6384 149.918C46.6384 152.56 48.7798 154.701 51.4214 154.701Z" fill="white"/>
<path d="M346.579 278.947L346.53 278.689C345.744 274.355 345.912 269.902 347.02 265.639C348.129 261.377 350.153 257.407 352.951 254.005C354.535 252.11 356.352 250.421 358.359 248.98L358.55 248.842L358.634 249.062C359.632 251.693 360.891 254.329 361.466 255.495L361.853 246.788L362.074 246.67C363.087 246.128 364.239 245.901 365.382 246.019C366.525 246.137 367.606 246.594 368.487 247.332C369.398 248.064 370.069 249.052 370.413 250.169C370.758 251.286 370.76 252.48 370.419 253.598C370.118 254.621 369.834 255.682 369.559 256.709C368.614 260.235 367.637 263.882 365.743 266.953C364.287 269.263 362.334 271.219 360.025 272.677C357.716 274.136 355.111 275.06 352.399 275.383L346.579 278.947Z" fill="#F2F2F2"/>
<path d="M374 279C374 279.131 373.984 279.262 373.952 279.383C373.919 279.505 373.872 279.615 373.812 279.708C373.753 279.801 373.682 279.875 373.603 279.925C373.525 279.975 373.442 280 373.357 280H29.6428C29.4723 280 29.3088 279.895 29.1883 279.707C29.0677 279.52 29 279.265 29 279C29 278.735 29.0677 278.48 29.1883 278.293C29.3088 278.105 29.4723 278 29.6428 278H373.357C373.442 278 373.525 278.025 373.603 278.075C373.682 278.125 373.753 278.199 373.812 278.292C373.872 278.385 373.919 278.495 373.952 278.617C373.984 278.738 374 278.869 374 279Z" fill="#CCCCCC"/>
<path d="M299.291 94.5037L288.265 92.9243C284.535 99.1602 283.21 115.758 283.21 115.758L272.419 141.407C271.704 141.892 271.13 142.557 270.754 143.335C270.378 144.113 270.214 144.976 270.278 145.838C270.341 146.699 270.631 147.529 271.117 148.243C271.603 148.957 272.269 149.53 273.048 149.905C273.826 150.28 274.689 150.444 275.551 150.379C276.412 150.314 277.241 150.024 277.955 149.537C278.668 149.049 279.241 148.383 279.615 147.604C279.989 146.825 280.151 145.962 280.086 145.1L297.804 115.246L299.291 94.5037Z" fill="#8B5E38"/>
<path d="M297.536 63.8904C299.243 64.1547 300.87 64.7919 302.303 65.7567C303.735 66.7214 304.937 67.99 305.824 69.4723C306.71 70.9545 307.259 72.6138 307.431 74.3322C307.604 76.0507 307.395 77.786 306.82 79.4146L304.48 86.047C304.48 86.047 303.207 106.017 298.349 111.654L283.443 110.305C283.443 110.305 286.168 100.23 284.076 95.3548C282.795 92.3694 282.866 82.0583 284.128 73.6705C284.365 72.1472 284.9 70.6856 285.702 69.3693C286.504 68.053 287.558 66.9079 288.804 65.9994C290.049 65.091 291.461 64.4371 292.96 64.0752C294.458 63.7133 296.013 63.6505 297.536 63.8904Z" fill="#ABB0A5"/>
<path d="M333.977 271.103L327.335 271.103L324.175 245.483L333.978 245.484L333.977 271.103Z" fill="#8B5E38"/>
<path d="M334.211 278.032L313.785 278.031V277.773C313.786 275.664 314.623 273.642 316.114 272.151C317.605 270.66 319.627 269.823 321.736 269.823H321.736L325.467 266.992L332.428 269.823L334.211 269.823L334.211 278.032Z" fill="#231F20"/>
<path d="M305.1 239.351L298.964 241.894L286.231 219.439L295.287 215.685L305.1 239.351Z" fill="#8B5E38"/>
<path d="M307.97 245.661L289.103 253.485L289.004 253.246C288.196 251.299 288.195 249.11 289.001 247.162C289.807 245.213 291.354 243.665 293.302 242.857L293.302 242.857L295.664 238.813L303.179 238.762L304.826 238.079L307.97 245.661Z" fill="#231F20"/>
<path d="M341.571 125.362L294.434 130.287L288.128 151.524L266.292 186.616L290.402 230.914L298.893 223.293L290.743 187.522L315.07 161.259L319.682 159.345L323.344 256.799L336.888 257.022L342.814 149.487C345.662 139.987 344.805 132.143 341.571 125.362Z" fill="#231F20"/>
<path d="M324.289 58.1304L316.552 49.4185L304.326 50.7769L296.499 61.7308C292.333 62.6886 288.692 65.2068 286.326 68.7672C283.96 72.3276 283.048 76.6595 283.779 80.8716C286.816 98.3617 297.138 115.325 293.73 123.955C288.556 137.054 288.24 142.397 300.625 140.56C313.01 138.724 354.502 134.49 346.458 126.446C338.413 118.401 336.646 104.959 336.646 104.959L336.324 74.2049C336.666 72.35 336.62 70.4445 336.19 68.6081C335.76 66.7717 334.954 65.0442 333.824 63.5344C332.693 62.0245 331.262 60.7649 329.622 59.8349C327.981 58.9049 326.165 58.3245 324.289 58.1304L324.289 58.1304Z" fill="#FCFAED"/>
<path d="M309.17 47.1898C316.665 47.1898 322.741 41.1139 322.741 33.6188C322.741 26.1238 316.665 20.0479 309.17 20.0479C301.675 20.0479 295.599 26.1238 295.599 33.6188C295.599 41.1139 301.675 47.1898 309.17 47.1898Z" fill="#8B5E38"/>
<path d="M325.891 32.8126C325.285 35.5623 324.192 38.1813 322.663 40.5458C322.258 41.3521 321.651 42.0404 320.903 42.5448C320.524 42.788 320.072 42.8906 319.625 42.8347C319.178 42.7789 318.765 42.5681 318.458 42.2391L318.127 41.9701C318.775 41.5712 319.353 41.0695 319.839 40.4847C320.08 40.1912 320.247 39.8445 320.327 39.4734C320.406 39.1023 320.396 38.7176 320.298 38.3512C320.18 37.9898 319.928 37.6879 319.592 37.5089C319.257 37.3299 318.866 37.2878 318.5 37.3914C317.706 37.7032 317.223 38.8525 316.391 38.6752C315.719 38.5284 315.578 37.642 315.578 36.9451C315.603 33.3016 313.842 28.1238 312.479 28.2828C311.102 28.358 309.722 28.1735 308.414 27.7387C307.103 27.3031 305.72 27.1266 304.342 27.219C304.244 27.2313 304.146 27.2496 304.043 27.2679C303.822 26.5757 303.518 25.9127 303.138 25.2934C303.181 26.041 303.144 26.791 303.028 27.5308C301.931 27.9827 300.798 28.3406 299.641 28.6006C298.382 28.7779 295.613 32.5436 295.484 32.1585C295.263 31.4662 294.959 30.8032 294.579 30.1839C294.622 30.9315 294.585 31.6816 294.469 32.4213C294.463 32.4519 294.463 32.4764 294.457 32.5069C293.846 31.6939 293.473 30.7035 293.681 31.4616C291.633 26.8278 292.428 23.5083 295.649 19.602C296.277 18.7621 297.108 18.0953 298.064 17.6641C298.543 17.4538 299.067 17.3703 299.588 17.4217C300.108 17.4731 300.607 17.6577 301.035 17.9575C302.349 16.7528 303.961 15.9215 305.705 15.5495C307.448 15.1776 309.259 15.2787 310.95 15.8424C314.307 17.01 316.893 17.6947 317.406 21.2159C320.181 20.7696 323.036 22.3468 324.565 24.7004C326.087 27.0601 326.399 30.0556 325.891 32.8126Z" fill="#2F2E41"/>
<path d="M314.886 145.531H310.382V110.865H314.045C314.222 110.865 314.393 110.935 314.518 111.06C314.644 111.185 314.715 111.355 314.716 111.533L314.886 145.531Z" fill="#3F3D56"/>
<path d="M310.803 145.715H262.433V121.027H310.803V145.715Z" fill="white"/>
<path d="M291.738 145.624H262.525V121.119H310.711V126.651C310.705 131.681 308.705 136.504 305.148 140.061C301.591 143.618 296.768 145.618 291.738 145.624Z" fill="#566246"/>
<path d="M314.152 111.849C314.128 111.895 314.109 111.944 314.096 111.994L312.428 118.423L310.619 121.85H262.616V120.996L265.349 118.424L268.538 112.325C268.678 112.056 268.863 111.812 269.084 111.604C269.589 111.129 270.256 110.865 270.949 110.865H313.559C313.675 110.865 313.788 110.895 313.889 110.952C313.99 111.008 314.074 111.09 314.134 111.189C314.194 111.289 314.227 111.401 314.23 111.517C314.233 111.633 314.207 111.747 314.152 111.849Z" fill="#3F3D56"/>
<path d="M310.803 145.715H262.433V121.027H310.803V145.715ZM262.8 145.348H310.436V121.394H262.8V145.348Z" fill="#3F3D56"/>
<path d="M313.319 115.138L312.429 118.424H265.35L266.871 115.689L313.319 115.138Z" fill="#566246"/>
<path d="M271.927 133.963H264.217V134.39H271.927V133.963Z" fill="white"/>
<path d="M271.927 135.458H264.217V135.885H271.927V135.458Z" fill="white"/>
<path d="M271.927 136.95H264.217V137.377H271.927V136.95Z" fill="white"/>
<path d="M267.203 129.211C268.735 129.211 269.977 127.969 269.977 126.438C269.977 124.906 268.735 123.664 267.203 123.664C265.672 123.664 264.43 124.906 264.43 126.438C264.43 127.969 265.672 129.211 267.203 129.211Z" fill="white"/>
<path d="M333.704 91.3323L322.677 89.7529C318.948 95.9888 317.623 112.587 317.623 112.587L306.831 138.235C306.117 138.721 305.543 139.386 305.167 140.164C304.791 140.942 304.626 141.805 304.69 142.666C304.754 143.528 305.043 144.358 305.53 145.072C306.016 145.786 306.682 146.359 307.46 146.734C308.238 147.109 309.102 147.272 309.963 147.208C310.825 147.143 311.654 146.852 312.368 146.365C313.081 145.878 313.654 145.212 314.028 144.433C314.402 143.654 314.564 142.791 314.498 141.929L332.216 112.075L333.704 91.3323Z" fill="#8B5E38"/>
<path d="M327.727 60.7214C329.434 60.9857 331.061 61.6229 332.494 62.5877C333.926 63.5524 335.128 64.821 336.015 66.3033C336.901 67.7855 337.45 69.4448 337.622 71.1632C337.795 72.8817 337.586 74.6169 337.011 76.2456L334.671 82.8779C334.671 82.8779 337.619 102.848 332.761 108.485L317.855 107.136C317.855 107.136 320.581 97.0605 318.488 92.1858C317.207 89.2004 317.278 78.8893 318.541 70.5014C319.505 64.0966 321.326 59.7301 327.727 60.7214Z" fill="#ABB0A5"/>
<path d="M234.097 27.6779C228.709 30.3648 224.61 35.0816 222.7 40.7909C220.791 46.5002 221.227 52.7342 223.914 58.1216C229.509 69.3401 249.727 88.4733 265.859 91.3643C258.92 70.2953 268.568 48.8797 264.54 37.8603C260.237 26.0858 245.315 22.083 234.097 27.6779Z" fill="#566246"/>
<path d="M241.659 54.36C245.747 54.36 249.061 51.0456 249.061 46.9571C249.061 42.8686 245.747 39.5542 241.659 39.5542C237.57 39.5542 234.256 42.8686 234.256 46.9571C234.256 51.0456 237.57 54.36 241.659 54.36Z" fill="white"/>
<path d="M265.716 103.246C268.394 103.246 270.565 101.075 270.565 98.3971C270.565 95.7192 268.394 93.5483 265.716 93.5483C263.038 93.5483 260.867 95.7192 260.867 98.3971C260.867 101.075 263.038 103.246 265.716 103.246Z" fill="#566246"/>
<path opacity="0.2" d="M243.915 39.1754C244.887 39.1416 245.856 39.2997 246.767 39.6407C247.678 39.9817 248.513 40.4989 249.224 41.1627C249.935 41.8265 250.508 42.6239 250.91 43.5093C251.313 44.3947 251.537 45.3508 251.57 46.3229C251.603 47.2951 251.444 48.2641 251.102 49.1748C250.761 50.0854 250.243 50.9198 249.578 51.6302C248.914 52.3406 248.116 52.9131 247.23 53.315C246.345 53.7169 245.388 53.9403 244.416 53.9724C246.064 53.3597 247.439 52.1806 248.297 50.6462C249.155 49.1118 249.438 47.3223 249.097 45.598C248.756 43.8736 247.812 42.327 246.435 41.2349C245.057 40.1428 243.336 39.5766 241.579 39.6375C242.328 39.3585 243.116 39.2024 243.915 39.1754Z" fill="#231F20"/>
<path opacity="0.2" d="M264.578 37.8663C268.605 48.8856 258.957 70.3012 265.896 91.3702C264.373 91.0899 262.874 90.6973 261.409 90.1957C255.755 69.8285 264.629 49.477 260.737 38.8303C257.254 29.3014 246.818 24.8635 237.017 26.4825C247.773 22.8141 260.634 27.0761 264.578 37.8663Z" fill="#231F20"/>
<path d="M48.3313 140.1C42.7545 139.966 37.3531 142.053 33.315 145.901C29.277 149.75 26.9332 155.045 26.7993 160.622C26.5205 172.235 34.7889 196.667 46.7483 206.025C50.1949 185.762 67.377 172.402 68.8534 161.632C70.4309 150.123 59.9442 140.379 48.3313 140.1Z" fill="#D1D3D4"/>
<path d="M46.1706 166.028C49.9591 166.028 53.0302 162.957 53.0302 159.168C53.0302 155.38 49.9591 152.309 46.1706 152.309C42.3822 152.309 39.311 155.38 39.311 159.168C39.311 162.957 42.3822 166.028 46.1706 166.028Z" fill="white"/>
<path d="M43.5837 216.216C46.065 216.216 48.0766 214.205 48.0766 211.723C48.0766 209.242 46.065 207.23 43.5837 207.23C41.1024 207.23 39.0908 209.242 39.0908 211.723C39.0908 214.205 41.1024 216.216 43.5837 216.216Z" fill="#D1D3D4"/>
<path opacity="0.2" d="M51.3905 153.77C53.0264 154.566 54.2792 155.979 54.8732 157.699C55.4673 159.418 55.3539 161.303 54.5581 162.939C54.1641 163.749 53.6143 164.474 52.9403 165.071C52.2663 165.669 51.4811 166.128 50.6297 166.422C48.9102 167.016 47.0251 166.903 45.3892 166.107C47.0041 166.319 48.6417 165.949 50.009 165.064C51.3763 164.179 52.384 162.836 52.8518 161.276C53.3195 159.716 53.2167 158.04 52.5618 156.549C51.907 155.058 50.7427 153.848 49.2775 153.137C50.0114 153.232 50.7249 153.446 51.3905 153.77Z" fill="#231F20"/>
<path opacity="0.2" d="M68.882 161.653C67.4057 172.424 50.2235 185.783 46.7769 206.046C45.6513 205.157 44.5931 204.185 43.6108 203.14C47.8061 184.009 63.8926 171.185 65.319 160.779C66.5956 151.465 59.9705 143.308 51.242 140.387C61.6415 142.043 70.3276 151.107 68.882 161.653Z" fill="#231F20"/>
<path d="M128.127 50.7236C126.56 50.8262 125.095 51.5363 124.043 52.7028C122.991 53.8694 122.436 55.4003 122.496 56.9698C122.513 57.2887 122.556 57.6056 122.626 57.9172L104.828 69.13L114.667 73.4819L130.06 62.1669C131.33 61.7788 132.436 60.9813 133.205 59.8987C133.974 58.8161 134.364 57.5093 134.312 56.1823C134.275 55.4275 134.09 54.6873 133.768 54.004C133.445 53.3207 132.991 52.7077 132.431 52.1999C131.871 51.6921 131.217 51.2995 130.506 51.0445C129.795 50.7895 129.04 50.6771 128.285 50.7138C128.232 50.7164 128.18 50.7196 128.127 50.7236Z" fill="#8B5E38"/>
<path d="M110.965 64.0371L115.376 73.1383L97.9347 84.3618C96.6937 85.1672 95.2673 85.6419 93.7912 85.7408C92.315 85.8397 90.8381 85.5595 89.5008 84.9268C87.8749 84.1485 86.546 82.8629 85.7144 81.2636C84.8828 79.6643 84.5935 77.8381 84.8903 76.0601L90.5495 43.7513C90.9295 41.4903 92.1613 39.4609 93.9918 38.0805C95.8222 36.7 98.1121 36.0734 100.39 36.3296C101.5 36.4509 102.575 36.7897 103.554 37.3264C104.533 37.8632 105.396 38.5875 106.095 39.458C106.794 40.3285 107.314 41.328 107.627 42.3997C107.939 43.4714 108.038 44.5941 107.917 45.7038C107.907 45.7915 107.896 45.879 107.884 45.9663C107.841 46.2768 107.781 46.5847 107.706 46.8888L101.527 69.8661L110.965 64.0371Z" fill="#566246"/>
<path d="M112.204 78.1445H87.2612V103.087H112.204V78.1445Z" fill="#FFB8B8"/>
<path d="M171.355 151.603L180.881 148.398L186.186 174.328L179.731 176.499L171.355 151.603Z" fill="#8B5E38"/>
<path d="M155.21 149.609L164.659 146.184L170.566 171.982L164.164 174.303L155.21 149.609Z" fill="#8B5E38"/>
<path d="M88.1559 109.602C83.1566 142.93 149.731 123.226 149.731 123.226L170.604 152.021L182.825 149.799C182.825 149.799 177.326 132.513 167.506 109.339C163.145 99.0477 113.625 101.562 113.625 101.562L112.597 93.493L84.2676 92.9375L88.1559 109.602Z" fill="#566246"/>
<path d="M136.246 125.463L151.64 115.875C162.91 138.379 166.232 148.125 166.232 148.125L155.578 151.122L136.246 125.463Z" fill="#566246"/>
<path d="M102.405 37.6115L97.3849 31.1582L90.2233 30.8477L89.5086 36.9171L85.96 38.5534C82.4168 52.0145 81.8696 66.0889 84.357 79.7844C84.8325 80.2322 85.18 80.7987 85.3636 81.4256C85.5472 82.0525 85.5602 82.717 85.4013 83.3505L85.1712 84.2677L85.1925 84.3013C85.9475 85.4927 86.2037 86.9333 85.9057 88.3121L84.2111 91.3232C83.603 92.4061 83.238 93.6085 83.1416 94.8467C83.0452 96.0849 83.2196 97.3292 83.6528 98.4932C84.086 99.6572 84.7675 100.713 85.65 101.587C86.5325 102.461 87.5947 103.132 88.7629 103.554C99.1796 107.329 108.944 108.736 116.168 98.1405L118.44 61.2179L102.405 37.6115Z" fill="#D8E2DC"/>
<path d="M97.1461 32.8732C104.459 32.8732 110.387 26.9449 110.387 19.6319C110.387 12.3189 104.459 6.39062 97.1461 6.39062C89.8331 6.39062 83.9048 12.3189 83.9048 19.6319C83.9048 26.9449 89.8331 32.8732 97.1461 32.8732Z" fill="#8B5E38"/>
<path d="M90.4988 3.66889C84.8922 3.7766 80.4455 8.97708 80.5667 15.2845C76.4177 19.6137 75.4126 40.9072 78.8794 46.5719C85.221 47.3081 89.0784 31.6185 94.6399 33.8866L95.3726 30.4626L97.0334 34.9215C98.4467 35.5731 99.8494 36.2883 101.241 37.0672C102.242 32.4787 101.994 28.0185 99.3051 24.1337C96.9164 20.6824 102.729 16.585 106.886 17.1641L106.826 13.9943L107.87 17.1452C109.49 18.336 111.283 17.9049 113.121 17.0443C116.102 1.55248 93.0239 -2.68405 90.4988 3.66889Z" fill="#2F2E41"/>
<path d="M176.797 180.883L181.041 180.329L181.276 176.223L183.739 179.977L194.995 178.506C195.535 178.436 196.038 178.195 196.431 177.818C196.824 177.442 197.086 176.949 197.179 176.413C197.272 175.877 197.192 175.325 196.949 174.838C196.707 174.351 196.315 173.954 195.831 173.706L186.031 168.672L185.502 164.621L176.121 166.42L176.797 180.883Z" fill="#231F20"/>
<path d="M165.588 180.92L169.438 179.05L168.36 175.081L171.885 177.862L182.097 172.903C182.587 172.666 182.987 172.278 183.241 171.796C183.494 171.315 183.587 170.765 183.506 170.227C183.424 169.689 183.173 169.191 182.789 168.805C182.405 168.42 181.907 168.168 181.369 168.085L170.48 166.413L168.696 162.738L160.367 167.415L165.588 180.92Z" fill="#231F20"/>
<path d="M107.465 92.6215H112.186V56.2852H108.346C108.16 56.2852 107.982 56.3588 107.85 56.4899C107.718 56.6211 107.644 56.7992 107.643 56.9851L107.465 92.6215Z" fill="#CCCCCC"/>
<path d="M111.745 66.9375H162.445V92.8152H111.745V66.9375Z" fill="white"/>
<path d="M111.841 72.8293V67.0312H162.348V92.7166H131.728C126.455 92.7106 121.401 90.6134 117.672 86.8851C113.944 83.1568 111.847 78.1019 111.841 72.8293Z" fill="#F2F2F2"/>
<path d="M108.234 57.3173C108.259 57.3655 108.279 57.4165 108.293 57.4692L110.041 64.208L111.937 67.7994H162.252V66.9049L159.388 64.2081L156.046 57.8161C155.899 57.5339 155.705 57.2785 155.473 57.0603C154.944 56.5624 154.245 56.2852 153.518 56.2852H108.856C108.735 56.2852 108.615 56.3165 108.51 56.3761C108.404 56.4358 108.316 56.5217 108.253 56.6255C108.191 56.7294 108.156 56.8477 108.153 56.9689C108.149 57.0901 108.177 57.2101 108.234 57.3173Z" fill="#F2F2F2"/>
<path d="M111.745 66.9375H162.445V92.8152H111.745V66.9375ZM162.06 92.4303H112.129V67.3224H162.06L162.06 92.4303Z" fill="#FFE8D6"/>
<path d="M109.107 60.7617L110.041 64.2054H159.388L157.793 61.3393L109.107 60.7617Z" fill="#CCCCCC"/>
<path d="M160.575 80.4961H152.493V80.9433H160.575V80.4961Z" fill="white"/>
<path d="M160.575 82.0625H152.493V82.5097H160.575V82.0625Z" fill="white"/>
<path d="M160.575 83.6289H152.493V84.0761H160.575V83.6289Z" fill="white"/>
<path d="M157.445 75.5134C159.05 75.5134 160.352 74.2119 160.352 72.6063C160.352 71.0008 159.05 69.6992 157.445 69.6992C155.839 69.6992 154.538 71.0008 154.538 72.6063C154.538 74.2119 155.839 75.5134 157.445 75.5134Z" fill="white"/>
<path d="M133.993 28.6795C137.411 28.5975 140.72 29.8762 143.194 32.2344C145.669 34.5927 147.105 37.8372 147.187 41.2543C147.358 48.3701 142.291 63.3406 134.963 69.0746C132.851 56.6585 122.323 48.4726 121.419 41.8731C120.452 34.8212 126.878 28.8504 133.993 28.6795Z" fill="#D1D3D4"/>
<path d="M135.317 44.5665C137.638 44.5665 139.52 42.6847 139.52 40.3633C139.52 38.042 137.638 36.1602 135.317 36.1602C132.996 36.1602 131.114 38.042 131.114 40.3633C131.114 42.6847 132.996 44.5665 135.317 44.5665Z" fill="white"/>
<path d="M136.902 75.3224C138.422 75.3224 139.655 74.0898 139.655 72.5694C139.655 71.049 138.422 69.8164 136.902 69.8164C135.381 69.8164 134.149 71.049 134.149 72.5694C134.149 74.0898 135.381 75.3224 136.902 75.3224Z" fill="#D1D3D4"/>
<path opacity="0.2" d="M132.118 37.0561C131.622 37.2976 131.178 37.6344 130.812 38.0474C130.446 38.4604 130.165 38.9415 129.984 39.4632C129.804 39.9849 129.728 40.537 129.761 41.088C129.795 41.639 129.936 42.178 130.177 42.6743C130.419 43.1707 130.756 43.6146 131.169 43.9808C131.582 44.3469 132.063 44.6282 132.585 44.8084C133.106 44.9886 133.658 45.0644 134.209 45.0312C134.76 44.9981 135.299 44.8568 135.796 44.6153C134.806 44.7452 133.803 44.5188 132.965 43.9765C132.127 43.4341 131.51 42.6113 131.223 41.6554C130.936 40.6994 130.999 39.6726 131.401 38.7588C131.802 37.845 132.515 37.1038 133.413 36.668C132.963 36.7267 132.526 36.8577 132.118 37.0561Z" fill="#231F20"/>
<path opacity="0.2" d="M121.4 41.8865C122.305 48.486 132.833 56.6719 134.945 69.088C135.635 68.543 136.283 67.9478 136.885 67.3072C134.315 55.5845 124.458 47.7269 123.584 41.3506C122.801 35.6436 126.861 30.6452 132.209 28.8555C125.837 29.8705 120.515 35.4241 121.4 41.8865Z" fill="#231F20"/>
<path d="M126.505 63.6298C124.939 63.5138 123.389 64.0136 122.185 65.0228C120.982 66.032 120.22 67.4711 120.061 69.0337C120.034 69.3519 120.033 69.6717 120.058 69.99L100.876 78.6235L110.016 84.2993L126.831 75.2306C128.143 75.0226 129.349 74.3863 130.26 73.4209C131.172 72.4555 131.739 71.2154 131.872 69.8941C132.01 68.3742 131.539 66.8617 130.562 65.6891C129.585 64.5166 128.183 63.7802 126.663 63.6419C126.61 63.6371 126.558 63.6331 126.505 63.6298Z" fill="#8B5E38"/>
<path d="M107.661 74.4307L110.766 84.0562L91.9356 92.7498C90.5948 93.3752 89.1163 93.6474 87.6407 93.5404C86.1651 93.4334 84.7414 92.9509 83.5049 92.1386C82.0027 91.1422 80.8652 89.6845 80.2636 87.9853C79.6621 86.286 79.6292 84.4373 80.1699 82.7178L90.2594 51.5074C90.9495 49.3211 92.4511 47.4823 94.4555 46.3693C96.4598 45.2563 98.8145 44.9536 101.035 45.5236C102.117 45.7978 103.135 46.2825 104.03 46.9499C104.924 47.6174 105.679 48.4545 106.25 49.4136C106.821 50.3727 107.198 51.4348 107.359 52.5395C107.52 53.6442 107.461 54.7697 107.187 55.8518C107.166 55.9373 107.143 56.0225 107.118 56.1073C107.033 56.4088 106.931 56.7055 106.814 56.996L97.5057 78.8933L107.661 74.4307Z" fill="#D8E2DC"/>
</g>
<defs>
<clipPath id="clip0_3_8406">
<rect width="386.67" height="278.733" fill="white" transform="translate(0 0.828125)"/>
</clipPath>
</defs>
</svg>
