<svg width="19" height="18" viewBox="0 0 19 18" fill="none" xmlns="http://www.w3.org/2000/svg">
<path fill-rule="evenodd" clip-rule="evenodd" d="M13.4491 14.4287C12.0949 15.5372 10.3771 16.2 8.50797 16.2C4.13599 16.2 0.591797 12.5735 0.591797 8.1C0.591797 3.62649 4.13599 0 8.50797 0C12.8799 0 16.4241 3.62649 16.4241 8.1C16.4241 10.0125 15.7764 11.7702 14.693 13.1559L17.9257 16.4636C18.2692 16.8151 18.2692 17.3849 17.9257 17.7364C17.5822 18.0879 17.0252 18.0879 16.6818 17.7364L13.4491 14.4287ZM2.35095 8.1C2.35095 4.62061 5.10754 1.8 8.50797 1.8C11.9084 1.8 14.665 4.62061 14.665 8.1C14.665 9.79734 14.009 11.3379 12.9423 12.4707C12.9121 12.4944 12.8832 12.5204 12.8556 12.5486C12.828 12.5768 12.8027 12.6065 12.7795 12.6373C11.6724 13.7288 10.1668 14.4 8.50797 14.4C5.10754 14.4 2.35095 11.5794 2.35095 8.1Z" fill="#566246"/>
</svg>
