<svg width="10" height="10" viewBox="0 0 10 10" fill="none" xmlns="http://www.w3.org/2000/svg">
<path d="M5.56062 0.556612C5.45533 0.343297 5.23807 0.208252 5.00018 0.208252C4.76229 0.208252 4.54503 0.343297 4.43974 0.556612L3.29752 2.87063L0.743122 3.24399C0.507772 3.27839 0.312347 3.44339 0.238986 3.66965C0.165624 3.8959 0.227045 4.14419 0.397431 4.31014L2.24527 6.10994L1.80918 8.6526C1.76896 8.88709 1.86536 9.12408 2.05785 9.26391C2.25033 9.40374 2.50552 9.42216 2.71609 9.31142L5.00018 8.11024L7.28427 9.31142C7.49485 9.42216 7.75003 9.40374 7.94252 9.26391C8.135 9.12408 8.2314 8.88709 8.19119 8.6526L7.75509 6.10994L9.60293 4.31014C9.77332 4.14419 9.83474 3.8959 9.76138 3.66965C9.68802 3.44339 9.49259 3.27839 9.25724 3.24399L6.70284 2.87063L5.56062 0.556612Z" fill="#ABB0A5"/>
</svg>
