<svg width="303" height="211" viewBox="0 0 303 211" fill="none" xmlns="http://www.w3.org/2000/svg">
<path d="M23.8944 154.917C24.3815 173.099 27.4275 191.122 32.9426 208.454C33.0648 208.856 33.2005 209.252 33.3326 209.655H67.0957C67.0603 209.294 67.0236 208.892 66.9881 208.454C64.7371 182.574 77.5977 26.9367 93.1165 0C91.7569 2.18507 21.2766 72.6837 23.8944 154.917Z" fill="#D5D5D5"/>
<path d="M26.4282 208.455C26.7107 208.857 27.0041 209.259 27.3049 209.655H52.6349C52.443 209.313 52.2204 208.911 51.9624 208.455C47.7783 200.903 35.3933 178.324 23.8972 154.918C11.5477 129.764 0.208138 103.656 1.16307 94.207C0.86713 96.3369 -7.68213 161.305 26.4282 208.455Z" fill="#D8E2DC"/>
<path d="M134.75 117.393C134.67 117.69 134.613 117.992 134.581 118.298L110.19 131.107L104.527 127.541L98.0273 135.384L107.44 142.672C108.2 143.261 109.131 143.587 110.092 143.602C111.054 143.617 111.994 143.319 112.772 142.754L138.13 124.332C139.223 124.787 140.429 124.898 141.587 124.651C142.745 124.404 143.801 123.81 144.613 122.948C145.425 122.086 145.956 120.998 146.134 119.827C146.313 118.657 146.131 117.459 145.612 116.395C145.093 115.33 144.263 114.449 143.231 113.868C142.2 113.287 141.015 113.033 139.836 113.142C138.657 113.25 137.539 113.715 136.63 114.474C135.722 115.234 135.066 116.251 134.75 117.393Z" fill="#8B5E38"/>
<path d="M164.156 204.188L169.047 201.043L159.243 180.684L152.025 185.325L164.156 204.188Z" fill="#8B5E38"/>
<path d="M161.882 203.396L171.513 197.203L171.513 197.202C173.141 196.156 175.118 195.798 177.009 196.209C178.9 196.62 180.551 197.765 181.598 199.393L181.726 199.593L165.957 209.733L161.882 203.396Z" fill="black"/>
<path d="M93.6978 169.22L131.237 145.185C131.237 145.185 138.135 144.519 142.274 152.677L167.276 188.59L156.609 195.808L128.866 167.001L109.829 185.829C109.829 185.829 137.877 181.229 136.928 199.725C136.176 214.404 97.7875 209.369 81.9733 206.665C78.9695 206.175 76.1105 205.029 73.5992 203.31C71.0878 201.591 68.9856 199.34 67.4419 196.717C65.7458 193.775 64.834 190.435 66.2586 187.278C70.0575 178.858 93.6978 169.22 93.6978 169.22Z" fill="black"/>
<path d="M75.0882 189.306L64.27 187.116L67.3528 134.02L79.8006 118.773L87.2168 117.46C89.4276 117.059 91.7084 117.504 93.6071 118.705C95.5058 119.906 96.8838 121.777 97.468 123.947L100.737 135.889C106.283 145.28 98.5134 156.169 97.7968 157.136L98.2005 173.605L75.0882 189.306Z" fill="#566246"/>
<path d="M85.1611 120.853L85.8475 118.425C85.8475 118.425 93.2964 112.934 104.679 127.162L99.2247 136.884L87.3681 136.41L85.1611 120.853Z" fill="#566246"/>
<path d="M102.297 101.957C104.407 110.607 96.0889 111.25 86.2217 113.657C76.3544 116.064 68.6747 119.324 66.5645 110.673C64.4543 102.022 64.621 85.7353 78.5799 82.3302C93.0197 78.8078 100.187 93.306 102.297 101.957Z" fill="black"/>
<path d="M83.2253 114.011C90.0597 114.011 95.6001 108.471 95.6001 101.636C95.6001 94.8021 90.0597 89.2617 83.2253 89.2617C76.3909 89.2617 70.8506 94.8021 70.8506 101.636C70.8506 108.471 76.3909 114.011 83.2253 114.011Z" fill="#8B5E38"/>
<path d="M69.047 103.844L73.802 102.684L74.4669 96.2988L76.3192 102.07L78.5919 101.516L78.9798 97.791L80.0604 101.158L96.9476 97.0383C96.1242 93.663 93.9938 90.753 91.0249 88.9485C88.056 87.144 84.4919 86.5928 81.1166 87.4162L78.6691 88.0132C76.9978 88.4209 75.4232 89.1538 74.0352 90.17C72.6471 91.1862 71.4728 92.4659 70.5793 93.9359C69.6858 95.406 69.0906 97.0376 68.8277 98.7377C68.5648 100.438 68.6393 102.173 69.047 103.844Z" fill="black"/>
<path d="M104.418 162.829C104.121 162.906 103.83 163.007 103.549 163.13L80.3325 148.298L80.6224 141.612L70.5884 139.855L68.925 151.643C68.7906 152.595 68.9687 153.565 69.4326 154.408C69.8965 155.25 70.6212 155.919 71.4978 156.315L100.067 169.205C100.214 170.38 100.716 171.482 101.504 172.365C102.293 173.248 103.332 173.87 104.483 174.148C105.634 174.427 106.843 174.348 107.948 173.923C109.053 173.497 110.002 172.745 110.67 171.767C111.337 170.789 111.691 169.631 111.685 168.447C111.678 167.263 111.311 166.109 110.632 165.138C109.953 164.168 108.995 163.427 107.885 163.015C106.775 162.602 105.566 162.537 104.418 162.829Z" fill="#8B5E38"/>
<path d="M81.6779 121.196L79.9283 118.99C79.9283 118.99 72.903 116.727 69.1089 126.212C65.3148 135.698 68.8718 144.946 68.8718 144.946L85.4709 146.369L86.6566 130.955L81.6779 121.196Z" fill="#566246"/>
<path d="M158.057 107.932H157.827V101.646C157.827 101.168 157.733 100.695 157.55 100.254C157.367 99.8124 157.099 99.4113 156.762 99.0735C156.424 98.7356 156.023 98.4676 155.581 98.2848C155.14 98.1019 154.667 98.0078 154.189 98.0078H140.871C140.393 98.0078 139.92 98.1019 139.478 98.2848C139.037 98.4676 138.636 98.7356 138.298 99.0734C137.96 99.4113 137.692 99.8123 137.509 100.254C137.327 100.695 137.232 101.168 137.232 101.646V136.133C137.232 136.61 137.327 137.084 137.509 137.525C137.692 137.966 137.96 138.368 138.298 138.705C138.636 139.043 139.037 139.311 139.478 139.494C139.92 139.677 140.393 139.771 140.871 139.771H154.189C154.667 139.771 155.14 139.677 155.581 139.494C156.023 139.311 156.424 139.043 156.762 138.705C157.099 138.368 157.367 137.966 157.55 137.525C157.733 137.084 157.827 136.611 157.827 136.133V112.407H158.057V107.932Z" fill="#3F3D56"/>
<path d="M154.336 98.9531H152.597C152.677 99.1491 152.708 99.3618 152.686 99.5724C152.664 99.783 152.591 99.985 152.473 100.161C152.355 100.336 152.196 100.48 152.009 100.58C151.822 100.679 151.614 100.731 151.402 100.732H143.772C143.561 100.731 143.352 100.679 143.165 100.58C142.978 100.48 142.819 100.336 142.701 100.161C142.583 99.985 142.51 99.783 142.488 99.5724C142.467 99.3618 142.497 99.1491 142.577 98.9531H140.953C140.233 98.9531 139.542 99.2394 139.032 99.7489C138.523 100.258 138.236 100.95 138.236 101.67V136.106C138.236 136.463 138.307 136.816 138.443 137.146C138.58 137.476 138.78 137.775 139.032 138.027C139.284 138.28 139.584 138.48 139.914 138.616C140.243 138.753 140.597 138.823 140.953 138.823H154.336C154.692 138.823 155.046 138.753 155.375 138.616C155.705 138.48 156.005 138.28 156.257 138.027C156.509 137.775 156.709 137.476 156.846 137.146C156.982 136.816 157.053 136.463 157.053 136.106V101.67C157.053 101.313 156.982 100.96 156.846 100.63C156.709 100.301 156.509 100.001 156.257 99.7489C156.005 99.4966 155.705 99.2965 155.375 99.1599C155.046 99.0234 154.692 98.9531 154.336 98.9531Z" fill="white"/>
<path d="M302.36 41.7031H143.192V93.9556H149.221V107.621L162.887 93.9556H302.36V41.7031Z" fill="white"/>
<path d="M148.716 108.838V94.458H142.687V41.1953H302.866V94.458H163.096L148.716 108.838ZM143.697 93.4476H149.727V106.399L162.678 93.4476H301.855V42.2057H143.697L143.697 93.4476Z" fill="#3F3D56"/>
<path d="M233.286 59.3984H160.908V61.5949H233.286V59.3984Z" fill="#566246"/>
<path d="M287.056 66.9961H160.908V69.1926H287.056V66.9961Z" fill="#E6E6E6"/>
<path d="M286.933 74.5938H160.908V76.7902H286.933V74.5938Z" fill="#E6E6E6"/>
<path d="M216.673 210.159H24.1946C24.0607 210.159 23.9322 210.106 23.8374 210.011C23.7427 209.916 23.6895 209.788 23.6895 209.654C23.6895 209.52 23.7427 209.391 23.8374 209.296C23.9322 209.202 24.0607 209.148 24.1946 209.148H216.673C216.807 209.148 216.935 209.202 217.03 209.296C217.125 209.391 217.178 209.52 217.178 209.654C217.178 209.788 217.125 209.916 217.03 210.011C216.935 210.106 216.807 210.159 216.673 210.159Z" fill="#3F3D56"/>
</svg>
